<svg xmlns="http://www.w3.org/2000/svg" width="221.925" height="73.264" viewBox="0 0 221.925 73.264">
  <g id="buttons" transform="translate(0.5 0.5)">
    <path id="Path_2924" data-name="Path 2924" d="M331.421,170.169a9.763,9.763,0,0,1-9.765,9.765H120.265a9.765,9.765,0,0,1-9.765-9.765V117.435a9.768,9.768,0,0,1,9.765-9.765H321.66a9.768,9.768,0,0,1,9.765,9.765v52.734Z" transform="translate(-110.5 -107.67)" fill="#401f5e" stroke="#fff" stroke-width="1"/>
    <g id="Group_200" data-name="Group 200" transform="translate(14.817 11.234)">
      <path id="Path_2925" data-name="Path 2925" d="M188.281,186.614a35.584,35.584,0,0,1-3.235,6.039c-2.1,3.2-5.065,7.182-8.732,7.216-3.261.03-4.1-2.122-8.524-2.1s-5.348,2.134-8.609,2.1c-3.667-.034-6.475-3.629-8.575-6.83-5.878-8.944-6.487-19.441-2.867-25.018,2.575-3.968,6.636-6.288,10.455-6.288,3.887,0,6.335,2.134,9.549,2.134,3.121,0,5.022-2.134,9.515-2.134a12.687,12.687,0,0,1,9.566,5.052C178.423,171.395,179.786,183.4,188.281,186.614Z" transform="translate(-145.49 -150.078)" fill="#fff"/>
      <g id="Group_199" data-name="Group 199" transform="translate(20.566)">
        <path id="Path_2926" data-name="Path 2926" d="M201.854,142.284a10.9,10.9,0,0,0,2.422-8.084,11.786,11.786,0,0,0-7.614,4.095c-1.656,2.011-3.019,4.988-2.49,7.885A9.946,9.946,0,0,0,201.854,142.284Z" transform="translate(-194.056 -134.2)" fill="#fff"/>
      </g>
    </g>
    <g id="Group_203" data-name="Group 203" transform="translate(67.089 11.34)">
      <g id="Group_201" data-name="Group 201" transform="translate(0 17.315)">
        <path id="Path_2927" data-name="Path 2927" d="M277.348,176.27l-8.418,24.773h3.854l2.511-7.605h8.147l2.583,7.605h3.959l-8.452-24.773Zm2,4.074c.284,1.105.593,2.253.987,3.494l2.27,6.568H276.15l2.236-6.61C278.72,182.724,279.047,181.563,279.347,180.344Z" transform="translate(-268.93 -175.876)" fill="#fff"/>
        <path id="Path_2928" data-name="Path 2928" d="M331.406,191.43a7.012,7.012,0,0,0-5.958,2.858l-.148-2.465h-3.43l.021.313c.1,1.537.144,3.227.144,5.649V216.88h3.748v-8.905a6.579,6.579,0,0,0,5.124,2.2,7.734,7.734,0,0,0,5.679-2.414,10.241,10.241,0,0,0,2.507-7.212,9.988,9.988,0,0,0-2.177-6.585A7.143,7.143,0,0,0,331.406,191.43Zm-.936,3.1c3.341,0,4.836,3.1,4.836,6.161,0,3.955-1.91,6.415-4.98,6.415a4.548,4.548,0,0,1-4.417-3.477,4.691,4.691,0,0,1-.131-1.215V199.4a5.461,5.461,0,0,1,.119-.923c.017-.1.038-.2.055-.3A4.751,4.751,0,0,1,330.471,194.534Z" transform="translate(-299.452 -184.616)" fill="#fff"/>
        <path id="Path_2929" data-name="Path 2929" d="M376.992,191.43a7.012,7.012,0,0,0-5.958,2.858l-.148-2.465H367.46l.017.313c.1,1.537.144,3.227.144,5.649V216.88h3.748v-8.905a6.578,6.578,0,0,0,5.124,2.2,7.751,7.751,0,0,0,5.683-2.414,10.261,10.261,0,0,0,2.507-7.212,9.968,9.968,0,0,0-2.181-6.585A7.143,7.143,0,0,0,376.992,191.43Zm-.932,3.1c3.341,0,4.836,3.1,4.836,6.161,0,3.955-1.91,6.415-4.98,6.415a4.544,4.544,0,0,1-4.417-3.477,4.692,4.692,0,0,1-.131-1.215V199.4a5.507,5.507,0,0,1,.119-.927c.017-.1.038-.2.055-.3A4.74,4.74,0,0,1,376.061,194.534Z" transform="translate(-325.736 -184.616)" fill="#fff"/>
        <path id="Path_2930" data-name="Path 2930" d="M434.922,186.231c-3.5-1.355-4.62-2.418-4.62-4.387,0-1.656,1.317-3.328,4.26-3.328a8.5,8.5,0,0,1,4.4,1.105l.318.195,1.059-3.129-.207-.123a10.86,10.86,0,0,0-5.458-1.224c-4.781,0-8.118,2.82-8.118,6.86,0,3.256,2.092,5.535,6.581,7.165,3.18,1.19,4.366,2.405,4.366,4.493,0,2.363-1.825,3.828-4.764,3.828a10.261,10.261,0,0,1-5.4-1.533l-.326-.208-1.008,3.2.186.123a12.84,12.84,0,0,0,6.335,1.63c6.441,0,8.728-3.93,8.728-7.292C441.245,190.14,439.415,188,434.922,186.231Z" transform="translate(-359.487 -175.34)" fill="#fff"/>
        <path id="Path_2931" data-name="Path 2931" d="M469.269,182.28l-3.676,1.156v3.112H462.9v2.994h2.693v9.176c0,2.219.423,3.773,1.3,4.755a4.8,4.8,0,0,0,3.625,1.423,8.749,8.749,0,0,0,2.9-.449l.212-.076-.178-3-.36.11a5.7,5.7,0,0,1-1.745.2c-1.453,0-2.071-.919-2.071-3.074v-9.066h4.523v-2.994h-4.523V182.28Z" transform="translate(-380.761 -179.341)" fill="#fff"/>
        <path id="Path_2932" data-name="Path 2932" d="M498.425,191.43c-5.242,0-8.905,3.913-8.905,9.515,0,5.433,3.544,9.231,8.622,9.231h.034c4.29,0,8.905-2.99,8.905-9.553a9.486,9.486,0,0,0-2.388-6.631A8.364,8.364,0,0,0,498.425,191.43Zm-.11,2.96c3.371,0,4.908,3.286,4.908,6.343,0,3.756-2.1,6.483-4.98,6.483h-.038c-2.841,0-4.908-2.681-4.908-6.377C493.3,197.63,494.856,194.39,498.315,194.39Z" transform="translate(-396.108 -184.616)" fill="#fff"/>
        <path id="Path_2933" data-name="Path 2933" d="M545.4,191.6l-.224-.055a3.7,3.7,0,0,0-.932-.119,5.348,5.348,0,0,0-4.7,3.019l-.11-2.621H536.07l.021.313c.1,1.482.14,3.151.14,5.4l-.034,12.247h3.748v-9.553a9.653,9.653,0,0,1,.1-1.452c.423-2.3,1.969-3.777,3.942-3.777a8.982,8.982,0,0,1,1.008.064l.4.042Z" transform="translate(-422.946 -184.616)" fill="#fff"/>
        <path id="Path_2934" data-name="Path 2934" d="M566.464,191.35c-4.989,0-8.474,3.985-8.474,9.7,0,5.5,3.468,9.049,8.833,9.049a14.337,14.337,0,0,0,5.933-1.139l.224-.1-.72-2.795-.313.127a11.624,11.624,0,0,1-4.7.838c-1.63,0-5.382-.538-5.615-5.433l12.1.038.051-.241a8.3,8.3,0,0,0,.114-1.563C573.9,195.915,571.952,191.35,566.464,191.35Zm-.25,2.85a3.693,3.693,0,0,1,2.753,1.05,5.336,5.336,0,0,1,1.292,3.489h-8.55C562.055,196.576,563.41,194.2,566.214,194.2Z" transform="translate(-435.584 -184.57)" fill="#fff"/>
      </g>
      <g id="Group_202" data-name="Group 202" transform="translate(0)">
        <path id="Path_2935" data-name="Path 2935" d="M268.934,135.971a27.207,27.207,0,0,1,3.6-.241c2.418,0,4.137.487,5.276,1.444a5.133,5.133,0,0,1,1.855,4.226,5.932,5.932,0,0,1-1.876,4.556,8.692,8.692,0,0,1-5.78,1.69,25.821,25.821,0,0,1-3.074-.14V135.971Zm1.7,10.388a12.423,12.423,0,0,0,1.7.068c3.6.017,5.547-1.808,5.547-4.976.021-2.8-1.719-4.523-5.276-4.523a10.822,10.822,0,0,0-1.973.157Z" transform="translate(-268.93 -135.188)" fill="#fff"/>
        <path id="Path_2936" data-name="Path 2936" d="M302.4,152.084a4.224,4.224,0,0,1-4.484-4.332,4.341,4.341,0,0,1,4.637-4.472,4.194,4.194,0,0,1,4.506,4.315,4.361,4.361,0,0,1-4.637,4.489H302.4Zm.059-1.148a3,3,0,0,0,2.841-3.286c0-1.427-.792-3.218-2.8-3.218-1.99,0-2.863,1.668-2.863,3.269a2.949,2.949,0,0,0,2.8,3.235Z" transform="translate(-285.644 -139.541)" fill="#fff"/>
        <path id="Path_2937" data-name="Path 2937" d="M323.5,143.74,324.754,148c.25.94.5,1.825.678,2.7h.059c.212-.851.521-1.757.83-2.681l1.529-4.281h1.431l1.448,4.209c.347.991.618,1.9.83,2.748h.059a23.677,23.677,0,0,1,.716-2.731l1.334-4.226h1.681l-3.015,8.418h-1.546l-1.431-4.019a26.263,26.263,0,0,1-.83-2.782h-.038a23.025,23.025,0,0,1-.851,2.8l-1.508,4h-1.546l-2.824-8.418Z" transform="translate(-299.388 -139.806)" fill="#fff"/>
        <path id="Path_2938" data-name="Path 2938" d="M357.766,145.759c0-.889-.021-1.584-.076-2.278H359.2l.1,1.376h.038a3.544,3.544,0,0,1,3.091-1.567c1.3,0,3.307.694,3.307,3.583V151.9h-1.7v-4.853c0-1.355-.563-2.5-2.164-2.5a2.428,2.428,0,0,0-2.283,1.567,2.09,2.09,0,0,0-.114.711V151.9h-1.7v-6.144Z" transform="translate(-320.103 -139.547)" fill="#fff"/>
        <path id="Path_2939" data-name="Path 2939" d="M383.2,134.45h1.7V146.8h-1.7Z" transform="translate(-334.811 -134.45)" fill="#fff"/>
        <path id="Path_2940" data-name="Path 2940" d="M396.774,152.084a4.227,4.227,0,0,1-4.484-4.332,4.342,4.342,0,0,1,4.641-4.472,4.193,4.193,0,0,1,4.5,4.315,4.362,4.362,0,0,1-4.641,4.489h-.017Zm.055-1.148a3,3,0,0,0,2.841-3.286c0-1.427-.792-3.218-2.8-3.218-1.99,0-2.863,1.668-2.863,3.269a2.949,2.949,0,0,0,2.8,3.235Z" transform="translate(-340.052 -139.541)" fill="#fff"/>
        <path id="Path_2941" data-name="Path 2941" d="M424.53,149.889a12.613,12.613,0,0,0,.136,2.016h-1.529l-.157-1.059h-.055a3.6,3.6,0,0,1-2.863,1.253c-1.893,0-2.863-1.2-2.863-2.418,0-2.037,2.011-3.151,5.624-3.129v-.174c0-.694-.212-1.965-2.126-1.948a4.865,4.865,0,0,0-2.456.627l-.385-1.025a6.572,6.572,0,0,1,3.091-.733c2.88,0,3.574,1.757,3.574,3.443v3.146Zm-1.66-2.282c-1.855-.034-3.964.263-3.964,1.9a1.421,1.421,0,0,0,1.584,1.461,2.357,2.357,0,0,0,2.3-1.41,1.394,1.394,0,0,0,.076-.487v-1.461Z" transform="translate(-354.413 -139.552)" fill="#fff"/>
        <path id="Path_2942" data-name="Path 2942" d="M448.1,134.45v10.176c0,.75.021,1.6.076,2.177h-1.529l-.076-1.461h-.038a3.5,3.5,0,0,1-3.172,1.652,4.018,4.018,0,0,1-4.023-4.281,4.2,4.2,0,0,1,4.2-4.523,3.218,3.218,0,0,1,2.824,1.27h.038v-5.01Zm-1.7,7.36a2.513,2.513,0,0,0-.076-.661,2.457,2.457,0,0,0-2.456-1.757c-1.757,0-2.8,1.393-2.8,3.235,0,1.724.949,3.129,2.765,3.129a2.533,2.533,0,0,0,2.494-1.825,2.357,2.357,0,0,0,.076-.661Z" transform="translate(-367.177 -134.45)" fill="#fff"/>
        <path id="Path_2943" data-name="Path 2943" d="M479.254,152.084a4.227,4.227,0,0,1-4.484-4.332,4.345,4.345,0,0,1,4.641-4.472,4.194,4.194,0,0,1,4.506,4.315,4.361,4.361,0,0,1-4.637,4.489h-.025Zm.059-1.148a3,3,0,0,0,2.841-3.286c0-1.427-.792-3.218-2.8-3.218-1.99,0-2.863,1.668-2.863,3.269a2.949,2.949,0,0,0,2.8,3.235Z" transform="translate(-387.604 -139.541)" fill="#fff"/>
        <path id="Path_2944" data-name="Path 2944" d="M501.336,145.759c0-.889-.021-1.584-.076-2.278h1.508l.1,1.376h.038a3.544,3.544,0,0,1,3.091-1.567c1.3,0,3.307.694,3.307,3.583V151.9h-1.7v-4.853c0-1.355-.559-2.5-2.164-2.5a2.428,2.428,0,0,0-2.282,1.567,2.089,2.089,0,0,0-.114.711V151.9h-1.7Z" transform="translate(-402.877 -139.547)" fill="#fff"/>
        <path id="Path_2945" data-name="Path 2945" d="M537.052,138.97v2.016h2.435v1.165h-2.435v4.54c0,1.042.33,1.635,1.275,1.635a3.441,3.441,0,0,0,.987-.106l.076,1.165a5.078,5.078,0,0,1-1.508.208,2.588,2.588,0,0,1-1.838-.644,3.052,3.052,0,0,1-.656-2.21v-4.595H533.94v-1.165h1.448v-1.55Z" transform="translate(-421.718 -137.056)" fill="#fff"/>
        <path id="Path_2946" data-name="Path 2946" d="M551.554,134.45h1.7v5.255h.038a2.9,2.9,0,0,1,1.219-1.08,3.585,3.585,0,0,1,1.74-.436c1.253,0,3.265.694,3.265,3.6v5.01h-1.7v-4.832c0-1.376-.559-2.507-2.164-2.507a2.445,2.445,0,0,0-2.282,1.533,1.676,1.676,0,0,0-.119.733v5.082h-1.7V134.45Z" transform="translate(-431.871 -134.45)" fill="#fff"/>
        <path id="Path_2947" data-name="Path 2947" d="M576.937,147.929c.038,2.071,1.491,2.922,3.189,2.922a7.023,7.023,0,0,0,2.592-.419l.309,1.08a8.331,8.331,0,0,1-3.134.538c-2.863,0-4.6-1.724-4.6-4.243a4.285,4.285,0,0,1,4.408-4.556,3.685,3.685,0,0,1,3.845,3.968,3.6,3.6,0,0,1-.055.728Zm4.967-1.1a2.261,2.261,0,0,0-2.342-2.49,2.648,2.648,0,0,0-2.609,2.49Z" transform="translate(-445.558 -139.524)" fill="#fff"/>
      </g>
    </g>
  </g>
</svg>
