<svg xmlns="http://www.w3.org/2000/svg" width="460.543" height="467.939" viewBox="0 0 460.543 467.939"><defs><style>.a{fill:#f2ae40;}.b{fill:#d86;}.c{fill:#164353;}.d{fill:#f3a17a;}.e{fill:#401f5e;}.f{fill:#fff;}.g{fill:#935c8f;}.h{fill:#a5729f;}.i{fill:#e3e4e5;}.j{fill:#f7f7f7;}.k{fill:#ffc24e;}.l{fill:#11393d;}.m{fill:#145b6b;}.n{fill:#208191;}.o{fill:#39778f;}.p{fill:#d14e4e;}.q{fill:#e56361;}.r{fill:#f9f9f9;}</style></defs><g transform="translate(-86.795 -115.277)"><g transform="translate(408.372 206.792)"><path class="a" d="M510.76,268.478c6.844-5.388,47.828,10.829,47.828,10.829,1.59-11.052,2.252-38.8,2.252-38.8l6.853-2.252s6.04,46.783-.34,53.234-52.206,0-52.206,0Z" transform="translate(-453.53 -219.892)"/><path class="b" d="M569.43,606.03a19.747,19.747,0,0,1-2.815-3.672c-2.278-3.654-6.674-2.832-6.674-2.832-1.358,1.188-1.582,6.6-1.617,7.872h-1.706c-.59-1.519-2.663-8.506-2.037-11.115.518-2.1,2.091-6.969,2.77-9.292a7.586,7.586,0,0,0,.375-1.885c-1.894-7.952-8.426-35.087-19.764-56.96-9.006-17.369-11.91-24.276-13.7-39.85s-15.984-54.512-15.984-54.512,19.943-54.154,28.154-20.479,9.31,74.981,10.686,83.228,13.724,66.02,21.068,90.242c1.4,4.619,8.211,13.8,10.865,15.949a.2.2,0,0,0,.071.027,9.652,9.652,0,0,1,3.529,1.867,7.678,7.678,0,0,1,1.26,1.4H569.43Z" transform="translate(-453.266 -237.361)"/><path class="c" d="M574.935,629.4c-1.456,0-4.28-3.047-6.263-4.584-1.849-1.439-2.922-1.376-2.922-1.376-1.358,1.188-1.894,4.682-1.93,5.96h-1.706c-.59-1.519-2.663-8.506-2.037-11.115.518-2.1,1.733-5,2.1-8.988,5.334-3.038,9.918,7.237,16.789,13.027,3.458,2.913,5.593,2.4,5.593,2.4a.217.217,0,0,0,.072.027,18.738,18.738,0,0,1,4.253,1.322c2.859,1.715,2.9,2.788,3.3,3.324Z" transform="translate(-458.771 -259.354)"/><path class="d" d="M469.737,426.78c-2.2,34.328,4.307,42.843,6.835,56.96,1.912,10.677-3.529,26.152,1.957,43.352C482.183,538.546,490.3,587.1,490.3,587.1v20.157h13.563s-5.343-22.3-5.343-30.691c0-36.186-4.995-79.333-4.253-95.737.724-16.029,6.111-47.641,6.111-47.641Z" transform="translate(-449.113 -239.972)"/><path class="e" d="M543.326,471.726s-12.08,5.486-36.249,6.808c-9.033.491-16.038.482-21.31.241h-.018c-1.912-5.754-7.97-24.517-10.293-39.769,0,0-4.128,21.265-1.322,38.616-1.278-.241-1.867-.411-1.867-.411-16.735-82.263,14.135-110.14,14.135-110.14,19.943-9.131,39.287-1.832,39.287-1.832S538.814,394.306,543.326,471.726Z" transform="translate(-448.9 -233.123)"/><path class="f" d="M504.918,272.08s-5.9,5.334-18.057,8.149-20.595-1.394-27.555,5.164c-10.927,10.3,7.362,33.836,15.35,45.076,2.975,4.19,9.265,15.815,10.534,26.965,0,0,21.1,6.129,39.3-1.832l1.358-25.884S537.307,294.837,504.918,272.08Z" transform="translate(-447.688 -223.494)"/><path class="g" d="M466.447,227.062a11.717,11.717,0,0,0-9.551-3.19c-6.147.608-6.54,13.644-3.351,19.88s-7.773,11-6.773,16.19,7.773,9.766,2.189,11.562.688,8.569,7.612,4.387-2.252-13.751,3.529-14.743,9.283-15.833,6.344-23.159S466.447,227.062,466.447,227.062Z" transform="translate(-446.707 -218.352)"/><path class="d" d="M475.094,224.929s23.284-7.8,27.975,8.6.652,32.148-11.883,31.728C475.729,264.743,457,234.15,475.094,224.929Z" transform="translate(-448.94 -218.274)"/><path class="g" d="M483.984,234.387A26.574,26.574,0,0,0,478.927,250s-3.9-4.789-5.951-.625,6.138,10.239,6.138,10.239-.411,2.689-5.1.295c-3.234-1.653-11.749-9.712-9.623-16.6S473.057,229.562,483.984,234.387Z" transform="translate(-448.555 -219.307)"/><path class="b" d="M480.922,258.68c1.787,4.807,8.488,12.16,15.743,9.775,0,0-.849,5.763,2.162,8.372v9.453l-18.5-9.81c1.492-14.412-1.984-16.083-1.984-16.083C480.3,261.682,480.922,258.68,480.922,258.68Z" transform="translate(-450.077 -222.067)"/><path class="h" d="M491.2,227.957s-8.542,12.142-17.441,16.324-15.654,2.636-9.962-14.689c0,0,2.287-5.942,8.077-8.4,16.53-7,21.587-1.3,21.587-1.3,10.758-2.636,16.6,9.7,10.1,18.022a6.548,6.548,0,0,0-3.047-5.879C497.52,230.191,494.8,232.076,491.2,227.957Z" transform="translate(-448.305 -217.702)"/><path class="c" d="M490.289,629.367c-.34-2.877.4-7.889.4-10.32,0-2.975,1.832-10.6,1.832-10.6.572,5.37,2.064,8.765,2.752,11.517s5.951,2.064,7,0,0-11.517,0-11.517c2.43,3.824,1.7,9.23,3.806,11.088,1.492,1.313,1.653,7.246,1.617,9.828Z" transform="translate(-451.34 -259.322)"/><g transform="translate(54.033 0.293)"><path class="i" d="M524.907,235.87l-17.074,3.69c-.6.125-.822,1.456-.509,2.957s1.045,2.627,1.644,2.511l17.137-3.377Z" transform="translate(-507.182 -219.931)"/><path class="j" d="M550.2,229.24,525.719,234.6c-.831.179-1.17,1.957-.759,3.958s1.43,3.494,2.269,3.333l24.607-4.78Z" transform="translate(-509.057 -219.224)"/><path class="i" d="M578.458,222.23,546.865,229.2c-1.063.232-1.51,2.359-1.019,4.753s1.751,4.173,2.823,3.967l31.763-6.12Z" transform="translate(-511.279 -218.478)"/><path class="f" d="M599.553,229.44c-1.581.3-3.377-1.984-4.021-5.1s.1-5.924,1.671-6.272,3.413,1.921,4.065,5.093S601.152,229.136,599.553,229.44Z" transform="translate(-516.568 -218.03)"/><path class="j" d="M594.789,218.07l-20.5,4.566c-1.4.313-2.037,2.949-1.43,5.9s2.243,5.12,3.654,4.852l20.631-3.931Z" transform="translate(-514.154 -218.035)"/><path class="c" d="M599.447,228.8c-1.385.268-2.948-1.724-3.511-4.45s.089-5.173,1.456-5.477c1.385-.3,2.975,1.68,3.547,4.441S600.841,228.535,599.447,228.8Z" transform="translate(-516.614 -218.117)"/></g><path class="k" d="M503.47,273.2s18.013,14.117,15.189,46.131l-.474,42.637,9.131,35.007s11.365-6.925,12.428-11.669l-9.033-30.772s5.7-47.659,2.162-57.424c-5.147-14.206-22.891-25.044-22.891-25.044Z" transform="translate(-452.753 -223.493)"/><path class="k" d="M473.537,281.08s-26.331-.34-16.413,23.3S481.9,340.086,483,355.23c0,0-11.07,19.844-13.751,31.04l36.3,15.18,7.934-36.553s3.351-34.444,0-46.765S480.435,282.813,473.537,281.08Z" transform="translate(-447.579 -224.453)"/><path class="i" d="M476.87,277.262l3.717-4.432s12.9,4.083,18.745,16.244l-7.166-4.584-7.318,2.984S477.772,281.917,476.87,277.262Z" transform="translate(-449.92 -223.574)"/><path class="d" d="M559.09,233.75l1.858,4.03s3.985,1.939,5.048,2.252,6.665-.179,6.853-2.252a5.181,5.181,0,0,0-.339-2.94l-4.235.813s-1.215-.706-3.744.4S561.216,233.92,559.09,233.75Z" transform="translate(-458.678 -219.411)"/><path class="a" d="M473.485,276.74s35.865,12.652,41.342,40.94c0,0-17.405-15.842-30.218-19.228l1.546-8.971-18.665-.7s.885-4.208,0-7.148C467.5,281.645,472.592,279.224,473.485,276.74Z" transform="translate(-448.921 -223.991)"/><path class="d" d="M523.041,250.189l-3.091-4.78s.974.063,1.546-1.769.366-6.165,1.546-7.425,2.832-3.163,3.592-1.769c0,0,2.091-1.8,2.886.366,0,0-.983.885-.6,1.4s1.573-1.617,3.1-1.948,1.206.8,1.206.8a21.383,21.383,0,0,0-1.778,3.19c-1.01,2.153,1.072-.6,1.8-1s2.127-1.1,2.127-1.1,1.394-.17,0,1.153-2.6,4.4-3.011,6.665a14.048,14.048,0,0,1-2.225,6.21C528.277,253.468,523.041,250.189,523.041,250.189Z" transform="translate(-454.509 -219.411)"/><path class="a" d="M498.85,273.239s3.779-3,18.424,6.96l-2.395,4.682,12.357,10.284s-4.53,17.825-8.935,22.6C518.3,317.771,521.071,282.121,498.85,273.239Z" transform="translate(-452.261 -223.572)"/><path class="i" d="M498.8,273.29s6.567,1.68,9.31,10.052h-5.933l-.563,5.781C501.624,289.123,497.014,278.285,498.8,273.29Z" transform="translate(-452.212 -223.623)"/><path class="k" d="M522.346,253.052s-1.117,51.751-5.9,57.415c-4.78,5.647-49.186.974-55.548-5.45-3.4-3.431-4.512-9.23-4.11-13.947.349-4.128,1.894-7.443,4.11-7.6,10.07-.777,45.443,12.795,45.443,12.795l9.4-45.157S518.468,248.763,522.346,253.052Z" transform="translate(-447.773 -221.192)"/><path class="a" d="M522.346,253.36s-1.117,51.751-5.9,57.415c-4.78,5.647-49.186.974-55.548-5.45-3.4-3.431-4.512-9.23-4.11-13.947l.018-.018s2.377,10.659,7.38,14.171c4.986,3.5,39.242,8.363,50.991,3.583C517.86,308.023,522.346,253.36,522.346,253.36Z" transform="translate(-447.773 -221.5)"/></g><g transform="translate(86.795 217.206)"><path class="a" d="M120.36,291.01S102.455,303,94.091,324.114s.125,24.4,5.7,21.542,35.114-31.5,35.114-31.5Z" transform="translate(-87.198 -235.924)"/><path class="b" d="M274.622,366.766a11.156,11.156,0,0,0,.465-1.117s-1.054-.715-2.3.67a1.012,1.012,0,0,0-.089.116,11.648,11.648,0,0,0,.465-1.108s-1.054-.715-2.3.67c-.7.768.054,1.608-1.608,2.341a3.7,3.7,0,0,0-.858-.885,3.767,3.767,0,0,1-1.108-1.188v.679a2.006,2.006,0,0,0-.357-.286,3.765,3.765,0,0,1-1.108-1.188v1.689a3.3,3.3,0,0,0-.822-.831,3.765,3.765,0,0,1-1.108-1.188v6.442c.652.08,1.3.125,1.93.143v.179c.491.063.974.08,1.465.107v.688a17.733,17.733,0,0,0,2.162.161c4.932.08,7.1-6.415,7.1-6.415A1.649,1.649,0,0,0,274.622,366.766Zm-2.118.08c-.161.554-.063,1.126-.992,1.644A14.356,14.356,0,0,0,272.5,366.847Zm.67,2.323c.241-.313.465-.634.661-.947A1.456,1.456,0,0,1,273.174,369.17Z" transform="translate(-105.659 -243.82)"/><path class="l" d="M238.87,629.531v-3.726c0-4.3-4.012-12.089-4.012-14.948s-11.079,2.323-11.079,2.323a13.8,13.8,0,0,1-3.806,8.327,10.586,10.586,0,0,0-2.689,8.023Z" transform="translate(-100.688 -269.9)"/><path class="l" d="M153.839,629.407l1.921-.893.893.893h7.318c.724-2.1,3.2-10.105.965-15.654-2.591-6.433-10.606-4.718-10.606-4.718s-5.441,7.586-8.586,8.953-15.171,6.228-16.61,9.373c-.429.938.3,1.582.089,2.037h24.616Z" transform="translate(-91.29 -269.776)"/><path class="e" d="M180.977,363.52c-4.155,60.194-15.493,139.1-27.787,222.085,0,0,2.412,3.922,16.092,1.867L211.418,411.25a1.217,1.217,0,0,1,2.35.384c.482,13.277,4.744,53.913,2.457,176.4a16.833,16.833,0,0,0,14.859,0s27.162-181.172,20.908-215.857Z" transform="translate(-93.867 -243.647)"/><path class="k" d="M248.812,360.933c.1,5.37-10.954,25.92-44.674,20.577-19.156-3.029-27.85-12.384-27.85-12.384s-61.141-51.581-56.093-74.445c1.742-7.881,21.846-19.907,37-19.165a103.373,103.373,0,0,1,39.242,10.168C212.492,291.751,248.446,340.544,248.812,360.933Z" transform="translate(-90.321 -234.27)"/><path class="e" d="M143.27,288.5a36.7,36.7,0,0,0,6.907,14.743,477.853,477.853,0,0,1,4.119,75.178l2.734,4.941,7.738-5.745s-5.441-51.8-10.749-74.517c0,0,3.243-10.82,7.845-14.063s-2.9-4.432-2.9-4.432Z" transform="translate(-92.81 -235.241)"/><path class="a" d="M147.551,275.467c-4.887,2.064-9.48,10.016-5.361,20.747,0,0,.625-4.441,3.047-4.476s3.949,2.886,3.949,2.886l6.951-5.834C156.137,288.8,156.36,271.741,147.551,275.467Z" transform="translate(-92.525 -234.211)"/><g transform="translate(17.633)"><path class="d" d="M151.154,255.4c3.771,20.568-17.78,27.055-24.231,20.336-2.064-2.153-4.369-6.335-6.129-11.026-.4-1.063-.777-2.144-1.108-3.243-2.269-7.434-2.859-15.252,1.036-18.022C134.259,233.808,147.384,234.844,151.154,255.4Z" transform="translate(-107.739 -230.231)"/><path class="m" d="M116.555,247.846s6.817-8.854,21.167-8.417c0,0,5.772,10.74,7.836,15.707,0,0,5.468.509,3.208,11.982,0,0,6.379-2.171,3.511-19.987-2.484-15.439-11.9-12.366-11.9-12.366s-4.816-8.39-14.716-4.271-13.483,8.944-16.574,4.691S103.224,249.141,116.555,247.846Z" transform="translate(-106.529 -229.357)"/><path class="d" d="M150.219,257.793s2.243-4.727,5.915-3.19.465,9.971-2.886,10.6S150.219,257.793,150.219,257.793Z" transform="translate(-111.182 -232.013)"/></g><path class="b" d="M155.443,267.22s.831,3.931,9,9.962c0,0-4.762,11.249-15.3,13.438,0,0-4.45-7.362-8.944-9.623,0,0,8.944-1.733,12.634-13.081A2.946,2.946,0,0,0,155.443,267.22Z" transform="translate(-92.483 -233.39)"/><path class="a" d="M160.086,272.67s2.359,5.763,0,10.668a16.761,16.761,0,0,1-6.326,7.059s4.351,2.984,5.549,5.575c0,0,8.765-8.167,9.167-15.145C168.878,273.867,160.086,272.67,160.086,272.67Z" transform="translate(-93.927 -233.97)"/><path class="a" d="M204.766,286.883c-13.688.652-3.02,22.453,3.074,26.822s58.291,6.96,58.291,6.96l-12.6,24.2s-2.564,10.641,8.586,10.472c0,0,26.706-32.7,27.9-44.353S240.63,285.177,204.766,286.883Z" transform="translate(-98.65 -235.469)"/><path class="d" d="M259.571,354.76s-3.091,1.662-2.3,7.827,5.977,9.355,10.758,10.552,8.372-4.646,8.372-4.646-.867-.929-2.395.134c-1.117.777.17,2.225-4.512,2.01a8.351,8.351,0,0,0-1.269-3.011c-1.716-1.689-1.456-7.237-1.456-7.237Z" transform="translate(-104.939 -242.714)"/><path class="k" d="M101.211,287.66s-1.8,34.31,0,40.806,2.761,18.727-5.888,17.4-9.891-20.738-7.38-31.165,6.665-27.957,6.665-27.957Z" transform="translate(-86.795 -235.469)"/><g transform="translate(7.322 23.839)"><path class="b" d="M94.99,289.3s.911,5.808,6.514,1.8a3.775,3.775,0,0,0,3.074-2.064c.536-1.135,1.724-5.129,2.573-6.4,1.412-2.118,1.59-3.172.59-3.27a19.872,19.872,0,0,1-5.075-.867C101.021,277.722,95.821,282.073,94.99,289.3Z" transform="translate(-94.99 -258.421)"/><g transform="translate(5.552)"><path class="m" d="M108.4,269.02l-7.184,15.261a2.337,2.337,0,0,0,1.179,2.35c1.287.625,2-.206,2.832-1.885,1.34-2.716,5.79-12.026,5.79-12.026Z" transform="translate(-101.204 -257.421)"/><g transform="translate(5.184)"><path class="m" d="M112.481,256.111l-2.046.482.2.858c-1.287,1.76-1.724,4.941-.929,8.363s2.6,6.085,4.539,7.085l.2.858,2.046-.482c2.636-.617,3.878-4.959,2.779-9.694S115.126,255.495,112.481,256.111Z" transform="translate(-107.251 -256.038)"/><path class="n" d="M116.972,264.111c1.108,4.735-.134,9.078-2.779,9.694s-5.674-2.725-6.782-7.47.134-9.078,2.779-9.694S115.864,259.376,116.972,264.111Z" transform="translate(-107.007 -256.095)"/><path class="f" d="M115.729,264.761c.777,3.315-.1,6.353-1.939,6.79s-3.976-1.9-4.744-5.227.1-6.353,1.939-6.79S114.952,261.446,115.729,264.761Z" transform="translate(-107.194 -256.405)"/></g></g><path class="d" d="M106.15,274.079a23.652,23.652,0,0,0,0,5.986c.465,2.314-.465,2.966-.7,2.877a9.508,9.508,0,0,1-1.153-1.608s1.2,2.028-.116,3.279c-.34.322-1.733-1.769-1.733-1.769s.768,1.841.214,2.448-1.421-.777-1.421-.777.348,1.206-.34,1.3a5.212,5.212,0,0,1-2.636-1.447c-.152-.232-1.045-.134-1.045-.134l-1.144.34c1.787-5.406,3.449-6.129,3.449-6.129s.572-1.412,1.376-1.2c0,0,.983-2.43,2.475-1.894C103.371,275.357,105.122,271.8,106.15,274.079Z" transform="translate(-95.106 -257.878)"/></g></g><g transform="translate(237.358 115.277)"><path class="o" d="M306.659,329.64C303.523,367,291.988,511.205,293.953,589.046h18.263c1-8.569,2.055-17.128,3.109-25.688q3.659-29.713,7.639-59.381c2.993-22.248,6.111-44.487,9.65-66.654,2.529-15.85,4.825-32.014,9.149-47.507a42.877,42.877,0,0,1,1.7-5.254c1.34-3.163,2.7-3.27,6.514-3.2,4.342.08,5.7,10.427,6.478,13.7,1.814,7.684,3.252,15.457,4.628,23.231,3.806,21.5,6.942,43.111,9.971,64.733q4.584,32.782,8.676,65.626,2.412,19.179,4.7,38.366l.241,2.037h18.263c1.966-77.84-9.569-222.049-12.705-259.406H306.659Z" transform="translate(-259.4 -138.11)"/><path class="p" d="M393.365,287.556c-.206,3.663-.429,7.4-.625,11.186q-.6,11.405-1.019,23.525s-21.774-4.959-41.422-4.959c-21.533,0-43.513,4.959-43.513,4.959-.4-8.5-.849-16.494-1.3-24.035-.366-6.237-.768-12.134-1.161-17.736-4.861-67.4-10.588-91.153-.286-97.551,4.414-2.743,45.3,3.52,45.3,3.52s39.2-1.528,44.183-2.234C402.979,182.9,397.037,225.62,393.365,287.556Z" transform="translate(-259.884 -122.411)"/><path class="b" d="M364.649,159.07l-9.882,7.55a20.569,20.569,0,0,1-12.107.822,59.4,59.4,0,0,1,.241,17.664l10.221,5.915s6.522-3.118,10.7-5.075C363.818,185.946,362.29,168.237,364.649,159.07Z" transform="translate(-264.611 -119.942)"/><g transform="translate(66.171)"><path class="q" d="M338.65,157.711s-9.56-8.881-8.765-22.015,7.166-15.127,9.694-15.654c0,0,2.332-5.2,13.492-4.735a21.039,21.039,0,0,1,18.62,11.9c4.137,8.22,1.4,27.484-5.432,30.5Z" transform="translate(-329.416 -115.277)"/><path class="d" d="M334.963,148.326s-4.932-4.923-5.54.831c-.706,6.665,5.352,9.355,6.54,7.237C337.134,154.268,334.963,148.326,334.963,148.326Z" transform="translate(-329.366 -118.588)"/><path class="d" d="M374.139,148.716s4.932-4.923,5.54.831c.706,6.674-5.352,9.355-6.54,7.237S374.139,148.716,374.139,148.716Z" transform="translate(-333.991 -118.63)"/><path class="d" d="M352.338,170.061c-10.954,0-17.128-7.148-17.128-28.609,0-11.061,5.629-17.852,17.9-17.852s17.432,6.791,17.432,17.852C370.538,164.5,363.65,170.061,352.338,170.061Z" transform="translate(-329.989 -116.164)"/><path class="q" d="M341.566,128.044s9.721,8.506,26.447,7.309l1.787,13.518s9.793-28.261-18.8-28.261-15.716,27.636-15.716,27.636S333.838,136.871,341.566,128.044Z" transform="translate(-329.688 -115.845)"/></g><path class="k" d="M368.986,185.6c-1,4.905-9.194,12.062-9.194,12.062l-3.726-5.423-3.538,2.314-4.047-2.314-4.655,4.021-.018.018s-7.479-9.417-6.674-12.116,5.709-4.083,5.709-4.083a6.628,6.628,0,0,0,5.343,6.5l4.235,5.146,3.931-3.833c4.78-.125,6.5-6.755,6.5-6.755A11.792,11.792,0,0,1,368.986,185.6Z" transform="translate(-264.016 -122.18)"/><path class="a" d="M348.953,188.85l4.369,6.648-4.047-2.314L344.62,197.2C344.781,196.847,347.542,191.3,348.953,188.85Z" transform="translate(-264.82 -123.114)"/><path class="a" d="M361.634,198.713l-3.726-5.423L354.37,195.6l4.4-5.674C358.757,189.93,363.3,194.523,361.634,198.713Z" transform="translate(-265.859 -123.229)"/><path class="q" d="M382.753,274.04,394.261,215.3l-15.413-14.635-17.932,13.465L348.872,202.82l-15.448,8.774L320.664,198.21,302.33,212.086l9.962,25.116,10.525,31.889c-8.488,2.788-14.34,7.041-18.075,13.116.4,5.611.8,11.508,1.162,17.736l10.9,11.651,16.547-24.374,19.29,21.98,18.075-21.98,10.918,24.374,11.544-11.142c.188-3.8.411-7.523.625-11.186A109.987,109.987,0,0,0,374.881,274.3Z" transform="translate(-260.316 -124.111)"/><g transform="translate(0 61.058)"><path class="a" d="M299.8,183.655s2.493,29.985-4.682,40.493-20.246,48.829-30.647,45.612-13.912-16.976,0-37S290.2,182.342,299.8,183.655Z" transform="translate(-255.307 -183.614)"/><path class="k" d="M257.129,256.217c3.109-10.382,13.822-15.573,16.413-14.135s8.023,9.659,4.512,21.622-13.349,17.03-19.451,9.444S257.129,256.217,257.129,256.217Z" transform="translate(-255.322 -189.816)"/><path class="d" d="M276.2,238.78s-6,8.8-6,15.3a23.513,23.513,0,0,0-1.93,1.841c-1.707,1.912-4.021,7.934-.974,11.169s7.353-2.922,7.353-2.922c2.672-.188,8.6-7.3,8.417-12.25S276.2,238.78,276.2,238.78Z" transform="translate(-256.426 -189.49)"/><path class="a" d="M406.407,185.715s-4.878,29.735,2.3,40.243,20.246,48.829,30.647,45.612,13.912-16.976,0-37S416,184.4,406.407,185.715Z" transform="translate(-271.229 -183.833)"/><path class="k" d="M449.059,258c-3.109-10.382-13.822-15.573-16.413-14.135s-8.023,9.659-4.512,21.622,13.349,17.03,19.451,9.444C453.7,267.352,449.059,258,449.059,258Z" transform="translate(-273.593 -190.006)"/><path class="d" d="M430.761,240.57s6,8.8,6,15.3a23.51,23.51,0,0,1,1.93,1.841c1.707,1.912,4.021,7.934.974,11.169s-7.353-2.922-7.353-2.922c-2.672-.188-8.6-7.3-8.417-12.25S430.761,240.57,430.761,240.57Z" transform="translate(-273.264 -189.681)"/></g><g transform="translate(14.906 70.418)"><path class="r" d="M422.659,202.015s-14.734,27.877-15.591,43.754,2.573,45.362,2.573,45.362H395.514l-12.929,8.032-19.335-2.305-15.118,3.154-15.788-7.478L312.51,296.85l-12.866-9.391-16.646,4s2.368-36.052-.384-47.784c-2.752-11.714-10.624-44.889-10.624-44.889l22.963-4.7,13.822,15.591,23.57-5,16.949,11,15.815-9.48,18.209,5.674,14.859-11.017Z" transform="translate(-271.99 -194.09)"/><path class="i" d="M316.318,255.223l-1.09,41.636-12.866-9.391c1.09-60.963-4.682-93.369-4.682-93.369L311.5,209.691Z" transform="translate(-274.726 -194.091)"/><path class="i" d="M339.54,205.94v87.848l15.779,7.478v-44.79l1.162-39.528Z" transform="translate(-279.185 -195.352)"/><path class="i" d="M375.865,207.63l-2.725,46.149.876,44.513,19.326,2.314s-5.263-42.914-5.263-46.828,6-40.466,6-40.466Z" transform="translate(-282.764 -195.532)"/><path class="i" d="M436.938,202.822S422.2,230.7,421.346,246.576s2.573,45.362,2.573,45.362H409.794l-3.744-38.8,6.4-51.483Z" transform="translate(-286.269 -194.896)"/></g><g transform="translate(19.775 107.566)"><path class="d" d="M277.44,238.448s5.522-2.886,7.621-2.779,7.237,2.779,7.237,2.779-.384,2.618-2.091,1.59a4.917,4.917,0,0,0-5.334,0l4.19.241,4.762,2.171s-.759,2.287-1.9,1.9-3.806-1.331-3.806-1.331l-2.475,1.376s4.762.911,5.334,1.483,2.859,2.368,2.859,2.368-.759,2.019-2.475.876-4.95-.876-4.95-.876,2.859,1.206,3.234,2.18,1.715,3.261,1.715,3.261-.572,1.331-1.9,0-6.683-.867-6.683-.867S277.824,245.114,277.44,238.448Z" transform="translate(-277.44 -235.667)"/><path class="d" d="M429.625,240.238S424.1,237.352,422,237.46s-7.237,2.779-7.237,2.779.384,2.618,2.091,1.59a4.917,4.917,0,0,1,5.334,0l-4.19.241-4.762,2.171s.759,2.287,1.9,1.9,3.806-1.331,3.806-1.331l2.475,1.376s-4.762.911-5.334,1.483-2.859,2.368-2.859,2.368.759,2.019,2.475.876,4.95-.876,4.95-.876-2.859,1.206-3.234,2.18-1.716,3.261-1.716,3.261.572,1.331,1.9,0,6.683-.867,6.683-.867S429.25,246.9,429.625,240.238Z" transform="translate(-291.904 -235.857)"/></g><g transform="translate(19.159 443.093)"><path class="l" d="M311.256,636.038a114.593,114.593,0,0,0-3.154-23.123s-13.9-5.718-15.35,3.681S283.7,628.2,279.806,629.042c-2.484.536-3,4.325-3.056,7Z" transform="translate(-276.75 -611.192)"/><path class="l" d="M394.56,636.038a114.592,114.592,0,0,1,3.154-23.123s13.9-5.718,15.35,3.681,9.051,11.606,12.947,12.446c2.484.536,3,4.325,3.056,7Z" transform="translate(-289.298 -611.192)"/></g></g></g></svg>