<svg xmlns="http://www.w3.org/2000/svg" xmlns:xlink="http://www.w3.org/1999/xlink" width="73" height="74" viewBox="0 0 73 74"><defs><style>.a{fill:#fed100;}.b{clip-path:url(#a);}.c{fill:#e0a964;}</style><clipPath id="a"><rect class="a" width="73" height="74" transform="translate(-0.049 -0.371)"/></clipPath></defs><g class="b" transform="translate(0.049 0.371)"><path class="c" d="M55,20.294a.987.987,0,0,0-.8-.671L36.381,17.033,28.409.88a.984.984,0,0,0-1.766,0L18.67,17.034.844,19.624A.985.985,0,0,0,.3,21.3L13.2,33.878,10.151,51.633a.988.988,0,0,0,.391.964.977.977,0,0,0,1.038.075L27.526,44.29,43.47,52.672a.985.985,0,0,0,1.43-1.039L41.855,33.879,54.754,21.3A.986.986,0,0,0,55,20.294Z" transform="translate(9.175 10.142)"/></g></svg>