<svg xmlns="http://www.w3.org/2000/svg" width="43.323" height="40.281" viewBox="0 0 43.323 40.281"><defs><style>.a{fill:#fff;}</style></defs><path class="a" d="M43.252,13.837c-.632-6.96-5.559-12.01-11.725-12.01A11.655,11.655,0,0,0,21.542,7.58,11.232,11.232,0,0,0,11.8,1.826C5.632,1.826.7,6.876.073,13.836A12.384,12.384,0,0,0,.441,18.4a19.577,19.577,0,0,0,6,10.009l15.093,13.7,15.352-13.7a19.579,19.579,0,0,0,6-10.01A12.412,12.412,0,0,0,43.252,13.837ZM41.26,18.019a17.9,17.9,0,0,1-5.491,9.153L21.542,39.865,7.559,27.175a17.917,17.917,0,0,1-5.5-9.157A10.821,10.821,0,0,1,1.716,14.1l.012-.084C2.27,7.919,6.5,3.492,11.8,3.492a9.767,9.767,0,0,1,8.974,6.261l.767,1.819.767-1.819a10.066,10.066,0,0,1,9.223-6.261c5.292,0,9.526,4.427,10.078,10.6A10.809,10.809,0,0,1,41.26,18.019Z" transform="translate(0 -1.826)"/><path class="a" d="M14.331,7.9A8.341,8.341,0,0,0,6,16.236a.833.833,0,1,0,1.666,0A6.673,6.673,0,0,1,14.331,9.57a.833.833,0,1,0,0-1.666Z" transform="translate(-1.001 -2.84)"/></svg>