<svg xmlns="http://www.w3.org/2000/svg" xmlns:xlink="http://www.w3.org/1999/xlink" width="1020.857" height="1296.415" viewBox="0 0 1020.857 1296.415"><defs><style>.a{fill:#ff9d00;}.b{fill:#0098ff;}.c{fill:#f90640;}.d{fill:#401f5e;}.e{fill:#f97a5d;}.f,.h{opacity:0.54;}.f{fill:url(#a);}.g{opacity:0.47;fill:url(#b);}.h{fill:url(#c);}</style><linearGradient id="a" x1="0.556" y1="1.368" x2="0.476" y2="0.236" gradientUnits="objectBoundingBox"><stop offset="0" stop-color="#fff"/><stop offset="1" stop-color="#ff7f00"/></linearGradient><linearGradient id="b" x1="0.994" y1="-0.23" x2="0.394" y2="0.821" gradientUnits="objectBoundingBox"><stop offset="0" stop-color="#fff"/><stop offset="1" stop-color="#fdfeff" stop-opacity="0"/></linearGradient><linearGradient id="c" x1="0.249" y1="1.109" x2="0.759" y2="0.158" xlink:href="#a"/></defs><g transform="translate(-919.471 -4365)"><g transform="translate(919.471 4705.304)"><g transform="translate(312.695 0)"><g transform="translate(27.676)"><path class="a" d="M429.338,137.484h0a1.31,1.31,0,0,1-1.3-1.3v-11.79a1.31,1.31,0,0,1,1.3-1.3h0a1.308,1.308,0,0,1,1.3,1.3v11.79A1.308,1.308,0,0,1,429.338,137.484Z" transform="translate(-428.033 -123.084)"/><path class="a" d="M429.338,155.775h0a1.308,1.308,0,0,1-1.3-1.3v-11.79a1.309,1.309,0,0,1,1.3-1.3h0a1.306,1.306,0,0,1,1.3,1.3v11.79A1.306,1.306,0,0,1,429.338,155.775Z" transform="translate(-428.033 -97.815)"/></g><g transform="translate(8.109 8.109)"><path class="a" d="M430.377,137.05h0a1.307,1.307,0,0,1-1.843,0l-8.337-8.337a1.306,1.306,0,0,1,0-1.843h0a1.307,1.307,0,0,1,1.843,0l8.337,8.337A1.307,1.307,0,0,1,430.377,137.05Z" transform="translate(-419.816 -126.489)"/><path class="a" d="M443.312,149.985h0a1.306,1.306,0,0,1-1.843,0l-8.339-8.337a1.311,1.311,0,0,1,0-1.843h0a1.309,1.309,0,0,1,1.846,0l8.337,8.337A1.307,1.307,0,0,1,443.312,149.985Z" transform="translate(-401.949 -108.622)"/></g><g transform="translate(0 27.676)"><path class="a" d="M430.809,136.011h0a1.306,1.306,0,0,1-1.3,1.3h-11.79a1.308,1.308,0,0,1-1.3-1.3h0a1.31,1.31,0,0,1,1.3-1.3h11.79A1.308,1.308,0,0,1,430.809,136.011Z" transform="translate(-416.411 -134.706)"/><path class="a" d="M449.1,136.011h0a1.306,1.306,0,0,1-1.3,1.3H436.007a1.306,1.306,0,0,1-1.3-1.3h0a1.308,1.308,0,0,1,1.3-1.3H447.8A1.308,1.308,0,0,1,449.1,136.011Z" transform="translate(-391.142 -134.706)"/></g><g transform="translate(8.109 8.109)"><path class="a" d="M430.377,139.8h0a1.307,1.307,0,0,1,0,1.843l-8.337,8.337a1.306,1.306,0,0,1-1.843,0h0a1.306,1.306,0,0,1,0-1.843l8.337-8.337A1.307,1.307,0,0,1,430.377,139.8Z" transform="translate(-419.816 -108.622)"/><path class="a" d="M443.312,126.87h0a1.307,1.307,0,0,1,0,1.843l-8.337,8.337a1.309,1.309,0,0,1-1.846,0h0a1.311,1.311,0,0,1,0-1.843l8.339-8.337A1.307,1.307,0,0,1,443.312,126.87Z" transform="translate(-401.949 -126.489)"/></g><path class="a" d="M436.416,138.13a4.959,4.959,0,1,0-4.958,4.958A4.958,4.958,0,0,0,436.416,138.13Z" transform="translate(-402.477 -109.149)"/></g><g transform="translate(414.318 267.772)"><g transform="translate(0)"><g transform="translate(35.425)"><rect class="b" width="3.337" height="18.429" rx="0.56"/><rect class="b" width="3.337" height="18.429" rx="0.56" transform="translate(0 55.758)"/></g><g transform="translate(9.685 9.685)"><rect class="b" width="3.337" height="18.429" rx="0.56" transform="translate(0 2.36) rotate(-45)"/><rect class="b" width="3.337" height="18.429" rx="0.56" transform="translate(39.427 41.787) rotate(-45.002)"/></g><g transform="translate(0 35.425)"><rect class="b" width="3.337" height="18.429" rx="0.56" transform="translate(0 3.337) rotate(-90)"/><rect class="b" width="3.337" height="18.429" rx="0.56" transform="translate(55.758 3.337) rotate(-90)"/></g><g transform="translate(9.685 9.685)"><rect class="b" width="3.337" height="18.429" rx="0.56" transform="translate(2.36 54.818) rotate(-135)"/><rect class="b" width="3.337" height="18.429" rx="0.56" transform="translate(41.787 15.391) rotate(-134.998)"/></g></g><ellipse class="b" cx="6.347" cy="6.347" rx="6.347" ry="6.347" transform="translate(30.747 30.746)"/></g><g transform="translate(661.61 184.311)"><g transform="translate(22.139)"><path class="c" d="M573.271,212h0a1.047,1.047,0,0,1-1.043-1.043v-9.433a1.047,1.047,0,0,1,1.043-1.043h0a1.046,1.046,0,0,1,1.043,1.043v9.433A1.046,1.046,0,0,1,573.271,212Z" transform="translate(-572.228 -200.482)"/><path class="c" d="M573.271,226.635h0a1.047,1.047,0,0,1-1.043-1.043v-9.432a1.047,1.047,0,0,1,1.043-1.043h0a1.046,1.046,0,0,1,1.043,1.043v9.432A1.046,1.046,0,0,1,573.271,226.635Z" transform="translate(-572.228 -180.267)"/></g><g transform="translate(6.485 6.486)"><path class="c" d="M574.1,211.653h0a1.045,1.045,0,0,1-1.477,0l-6.67-6.668a1.049,1.049,0,0,1,0-1.476h0a1.049,1.049,0,0,1,1.476,0l6.67,6.67A1.046,1.046,0,0,1,574.1,211.653Z" transform="translate(-565.655 -203.206)"/><path class="c" d="M584.45,222h0a1.042,1.042,0,0,1-1.474,0l-6.67-6.668a1.049,1.049,0,0,1,0-1.476h0a1.049,1.049,0,0,1,1.476,0l6.668,6.67A1.042,1.042,0,0,1,584.45,222Z" transform="translate(-551.36 -188.911)"/></g><g transform="translate(0 22.139)"><path class="c" d="M574.45,210.822h0a1.046,1.046,0,0,1-1.043,1.043h-9.432a1.046,1.046,0,0,1-1.043-1.043h0a1.046,1.046,0,0,1,1.043-1.043h9.432A1.046,1.046,0,0,1,574.45,210.822Z" transform="translate(-562.931 -209.779)"/><path class="c" d="M589.083,210.822h0a1.046,1.046,0,0,1-1.043,1.043h-9.432a1.046,1.046,0,0,1-1.043-1.043h0a1.046,1.046,0,0,1,1.043-1.043h9.432A1.046,1.046,0,0,1,589.083,210.822Z" transform="translate(-542.716 -209.779)"/></g><g transform="translate(6.485 6.486)"><path class="c" d="M574.1,213.857h0a1.049,1.049,0,0,1,0,1.476L567.435,222a1.045,1.045,0,0,1-1.476,0h0a1.046,1.046,0,0,1,0-1.474l6.67-6.67A1.049,1.049,0,0,1,574.1,213.857Z" transform="translate(-565.655 -188.911)"/><path class="c" d="M584.45,203.509h0a1.045,1.045,0,0,1,0,1.476l-6.668,6.668a1.045,1.045,0,0,1-1.476,0h0a1.046,1.046,0,0,1,0-1.474l6.67-6.67A1.046,1.046,0,0,1,584.45,203.509Z" transform="translate(-551.36 -203.206)"/></g><path class="c" d="M578.933,212.518a3.966,3.966,0,1,0-3.967,3.967A3.968,3.968,0,0,0,578.933,212.518Z" transform="translate(-551.784 -189.336)"/></g><g transform="translate(0 464.575)"><g transform="translate(0)"><g transform="translate(38.378)"><rect class="c" width="3.615" height="19.965" rx="0.448"/><rect class="c" width="3.615" height="19.965" rx="0.448" transform="translate(0 60.405)"/></g><g transform="translate(10.492 10.492)"><rect class="c" width="3.615" height="19.965" rx="0.448" transform="translate(0 2.556) rotate(-45)"/><rect class="c" width="3.615" height="19.965" rx="0.448" transform="translate(42.713 45.269) rotate(-45)"/></g><g transform="translate(0 38.378)"><rect class="c" width="3.615" height="19.965" rx="0.448" transform="translate(0 3.615) rotate(-90)"/><rect class="c" width="3.615" height="19.965" rx="0.448" transform="translate(60.405 3.615) rotate(-90)"/></g><g transform="translate(10.492 10.492)"><rect class="c" width="3.615" height="19.965" rx="0.448" transform="translate(2.556 59.386) rotate(-135)"/><rect class="c" width="3.615" height="19.965" rx="0.448" transform="translate(45.268 16.673) rotate(-134.993)"/></g></g><path class="c" d="M312.84,339.036a6.876,6.876,0,1,0-6.875,6.877A6.876,6.876,0,0,0,312.84,339.036Z" transform="translate(-265.779 -298.852)"/></g><g transform="translate(850.943 250.479)"><g transform="translate(21.032)"><path class="a" d="M652.261,239.21h0a.994.994,0,0,1-.991-.991v-8.961a.994.994,0,0,1,.991-.991h0a.993.993,0,0,1,.991.991v8.961A.993.993,0,0,1,652.261,239.21Z" transform="translate(-651.27 -228.268)"/><path class="a" d="M652.261,253.113h0a1,1,0,0,1-.991-.991v-8.961a.994.994,0,0,1,.991-.991h0a.993.993,0,0,1,.991.991v8.961A1,1,0,0,1,652.261,253.113Z" transform="translate(-651.27 -209.063)"/></g><g transform="translate(6.162 6.162)"><path class="a" d="M653.052,238.882h0a.994.994,0,0,1-1.4,0l-6.334-6.337a.992.992,0,0,1,0-1.4h0a.992.992,0,0,1,1.4,0l6.337,6.337A.992.992,0,0,1,653.052,238.882Z" transform="translate(-645.025 -230.856)"/><path class="a" d="M662.882,248.713h0a1,1,0,0,1-1.4,0l-6.337-6.337a1,1,0,0,1,0-1.4h0a1,1,0,0,1,1.4,0l6.337,6.337A1,1,0,0,1,662.882,248.713Z" transform="translate(-631.447 -217.276)"/></g><g transform="translate(0 21.034)"><path class="a" d="M653.38,238.092h0a.993.993,0,0,1-.991.991h-8.961a.993.993,0,0,1-.991-.991h0a.993.993,0,0,1,.991-.991h8.961A.993.993,0,0,1,653.38,238.092Z" transform="translate(-642.438 -237.101)"/><path class="a" d="M667.282,238.092h0a.993.993,0,0,1-.991.991h-8.961a.993.993,0,0,1-.99-.991h0a.993.993,0,0,1,.99-.991h8.961A.993.993,0,0,1,667.282,238.092Z" transform="translate(-623.235 -237.101)"/></g><g transform="translate(6.162 6.162)"><path class="a" d="M653.052,240.974h0a1,1,0,0,1,0,1.4l-6.337,6.337a1,1,0,0,1-1.4,0h0a1,1,0,0,1,0-1.4l6.334-6.337A1,1,0,0,1,653.052,240.974Z" transform="translate(-645.025 -217.276)"/><path class="a" d="M662.882,231.145h0a.992.992,0,0,1,0,1.4l-6.337,6.337a.992.992,0,0,1-1.4,0h0a.992.992,0,0,1,0-1.4l6.337-6.337A.992.992,0,0,1,662.882,231.145Z" transform="translate(-631.447 -230.856)"/></g><path class="a" d="M657.641,239.7a3.768,3.768,0,1,0-3.77,3.767A3.77,3.77,0,0,0,657.641,239.7Z" transform="translate(-631.849 -217.679)"/></g></g><circle class="d" cx="140.042" cy="140.042" r="140.042" transform="translate(1509.621 5463.365) rotate(-45)"/><ellipse class="e" cx="113.668" cy="113.668" rx="113.668" ry="113.668" transform="translate(975.629 4931.159)"/><g transform="translate(1698.025 4607)"><path class="a" d="M636.718,236.362H609.894a5.894,5.894,0,0,1-5.246-8.58l12.023-23.475H629.94l12.023,23.475A5.894,5.894,0,0,1,636.718,236.362Z" transform="translate(-516.155 27.417)"/><path class="f" d="M637.8,227.782l-6.525-12.74h0l-5.5-10.735H612.507l-5.5,10.735h0a15.971,15.971,0,0,1,15.986,16.207,31.514,31.514,0,0,1-.481,5.113h10.04A5.894,5.894,0,0,0,637.8,227.782Z" transform="translate(-511.99 27.417)"/><g transform="translate(-108 -242)"><path class="a" d="M785.853,216.374c0,60.405-48.968,128.095-109.373,128.095s-109.373-67.69-109.373-128.095a109.373,109.373,0,1,1,218.746,0Z" transform="translate(-567.107 -106.999)"/><path class="g" d="M692.664,208.235c-13,40.276-53.826,76.934-86.2,66.48s-44.05-64.063-31.046-104.339,49.8-64.453,82.173-54S705.671,167.959,692.664,208.235Z" transform="translate(-562.833 -97.407)"/><path class="h" d="M653.836,107.09a116.117,116.117,0,0,1-61.572,214.571c-1.343,0-2.669-.055-4-.1,17.019,14.024,37.268,22.782,58.993,22.782,60.405,0,109.373-67.69,109.373-128.095A109.364,109.364,0,0,0,653.836,107.09Z" transform="translate(-537.883 -106.873)"/></g></g><g transform="translate(1025.742 5016.458)"><g transform="translate(0 337.451)"><path class="a" d="M341.575,382.824A5.023,5.023,0,1,1,346.6,377.8,5.024,5.024,0,0,1,341.575,382.824Z" transform="translate(-281.299 -372.777)"/><path class="a" d="M341.575,394.909a5.023,5.023,0,1,1,5.025-5.025A5.024,5.024,0,0,1,341.575,394.909Z" transform="translate(-281.299 -356.083)"/><path class="a" d="M341.575,406.992a5.022,5.022,0,1,1,5.025-5.022A5.021,5.021,0,0,1,341.575,406.992Z" transform="translate(-281.299 -339.39)"/><path class="a" d="M329.976,382.824A5.023,5.023,0,1,1,335,377.8,5.026,5.026,0,0,1,329.976,382.824Z" transform="translate(-297.325 -372.777)"/><path class="a" d="M329.976,394.909A5.023,5.023,0,1,1,335,389.884,5.026,5.026,0,0,1,329.976,394.909Z" transform="translate(-297.325 -356.083)"/><path class="a" d="M329.976,406.992A5.022,5.022,0,1,1,335,401.969,5.024,5.024,0,0,1,329.976,406.992Z" transform="translate(-297.325 -339.39)"/><path class="a" d="M318.372,382.824A5.023,5.023,0,1,1,323.4,377.8,5.024,5.024,0,0,1,318.372,382.824Z" transform="translate(-313.35 -372.777)"/><path class="a" d="M318.372,394.909a5.023,5.023,0,1,1,5.025-5.025A5.024,5.024,0,0,1,318.372,394.909Z" transform="translate(-313.35 -356.083)"/><path class="a" d="M318.372,406.992a5.022,5.022,0,1,1,5.025-5.022A5.022,5.022,0,0,1,318.372,406.992Z" transform="translate(-313.35 -339.39)"/></g><g transform="translate(682.886 0)"><path class="c" d="M628.343,241.118a5.023,5.023,0,1,1,5.022-5.025A5.026,5.026,0,0,1,628.343,241.118Z" transform="translate(-568.064 -231.071)"/><path class="c" d="M628.343,253.2a5.023,5.023,0,1,1,5.022-5.025A5.026,5.026,0,0,1,628.343,253.2Z" transform="translate(-568.064 -214.377)"/><path class="c" d="M616.739,241.118a5.023,5.023,0,1,1,5.022-5.025A5.024,5.024,0,0,1,616.739,241.118Z" transform="translate(-584.089 -231.071)"/><path class="c" d="M616.739,253.2a5.023,5.023,0,1,1,5.022-5.025A5.024,5.024,0,0,1,616.739,253.2Z" transform="translate(-584.089 -214.377)"/><path class="c" d="M605.14,241.118a5.023,5.023,0,1,1,5.022-5.025A5.026,5.026,0,0,1,605.14,241.118Z" transform="translate(-600.115 -231.071)"/><path class="c" d="M605.14,253.2a5.023,5.023,0,1,1,5.022-5.025A5.026,5.026,0,0,1,605.14,253.2Z" transform="translate(-600.115 -214.377)"/></g></g><g transform="translate(1220.775 4855.013)"><path class="a" d="M358.293,230.818l4.007,7.327,7.327,4.007L362.3,246.16l-4.007,7.327-4.007-7.327-7.327-4.007,7.327-4.007Z" transform="translate(-346.959 -181.975)"/><path class="c" d="M489.781,210.307l5.424,9.917,9.918,5.424-9.918,5.424-5.424,9.917-5.424-9.917-9.917-5.424,9.917-5.424Z" transform="translate(-170.863 -210.307)"/><path class="b" d="M672.154,281.924l5.424,9.917,9.918,5.424-9.918,5.424-5.424,9.918-5.424-9.918-9.917-5.424,9.917-5.424Z" transform="translate(32.057 -118.38)"/><path class="b" d="M672.154,281.924l5.424,9.917,9.918,5.424-9.918,5.424-5.424,9.918-5.424-9.918-9.917-5.424,9.917-5.424Z" transform="translate(-847.943 118.62)"/><path class="a" d="M497,395.625l6.125,11.2,11.2,6.125-11.2,6.125L497,430.272l-6.125-11.2-11.2-6.125,11.2-6.125Z" transform="translate(-163.624 45.68)"/></g><path class="c" d="M484.461,131.728l-24.386,24.365-27.647-27.623-27.643,27.622L377.143,128.47l-27.631,27.622L321.873,128.47l-.231.231v13.042l.231-.231,27.639,27.624,27.633-27.624,27.64,27.623,27.643-27.624,27.647,27.623,30.905-30.881Z" transform="translate(653.847 4701.659)"/><path class="c" d="M484.461,131.728l-24.386,24.365-27.647-27.623-27.643,27.622L377.143,128.47l-27.631,27.622L321.873,128.47l-.231.231v13.042l.231-.231,27.639,27.624,27.633-27.624,27.64,27.623,27.643-27.624,27.647,27.623,30.905-30.881Z" transform="translate(1367.847 4601.659)"/></g></svg>