<svg xmlns="http://www.w3.org/2000/svg" xmlns:xlink="http://www.w3.org/1999/xlink" width="661.521" height="1038.106" viewBox="0 0 661.521 1038.106">
  <defs>
    <linearGradient id="linear-gradient" x1="0.5" x2="0.5" y2="1" gradientUnits="objectBoundingBox">
      <stop offset="0" stop-color="#fff"/>
      <stop offset="1" stop-color="#e3e3e3"/>
    </linearGradient>
    <filter id="Case" x="0" y="0" width="661.521" height="1038.106" filterUnits="userSpaceOnUse">
      <feOffset input="SourceAlpha"/>
      <feGaussianBlur stdDeviation="49.5" result="blur"/>
      <feFlood flood-opacity="0.161"/>
      <feComposite operator="in" in2="blur"/>
      <feComposite in="SourceGraphic"/>
    </filter>
    <linearGradient id="linear-gradient-2" x1="0.5" x2="0.5" y2="1" gradientUnits="objectBoundingBox">
      <stop offset="0" stop-color="#f6f6f6"/>
      <stop offset="1" stop-color="#ececec"/>
    </linearGradient>
    <linearGradient id="linear-gradient-3" x1="0.5" x2="0.5" y2="1" gradientUnits="objectBoundingBox">
      <stop offset="0" stop-color="#fff"/>
      <stop offset="1" stop-color="#f3f3f3"/>
    </linearGradient>
    <linearGradient id="linear-gradient-4" x1="0.5" x2="0.5" y2="1" gradientUnits="objectBoundingBox">
      <stop offset="0" stop-color="#fff"/>
      <stop offset="1" stop-color="#e5e5e5"/>
    </linearGradient>
    <linearGradient id="linear-gradient-5" x1="1" y1="0.377" x2="0" y2="0.377" gradientUnits="objectBoundingBox">
      <stop offset="0" stop-color="#fff" stop-opacity="0"/>
      <stop offset="0.322" stop-color="#fdfdfd" stop-opacity="0"/>
      <stop offset="1" stop-color="#dadada"/>
    </linearGradient>
    <linearGradient id="linear-gradient-12" x1="0.5" x2="0.5" y2="1" gradientUnits="objectBoundingBox">
      <stop offset="0" stop-color="#f3f3f3"/>
      <stop offset="1" stop-color="#fff"/>
    </linearGradient>
    <clipPath id="clip-path">
      <rect id="Rectangle_4" data-name="Rectangle 4" width="325" height="79" transform="translate(0.467 0.131)" fill="#e2e1e1"/>
    </clipPath>
    <clipPath id="clip-path-2">
      <rect id="Rectangle_11" data-name="Rectangle 11" width="25" height="26" transform="translate(0.221 0.478)" fill="#fff" stroke="#707070" stroke-width="1"/>
    </clipPath>
    <clipPath id="clip-path-3">
      <path id="Shape" d="M337.706-26.667H348.37a1.706,1.706,0,0,1,1.706,1.706v3.839h0a1.706,1.706,0,0,1-1.706,1.706H337.706A1.706,1.706,0,0,1,336-21.121V-24.96h0A1.706,1.706,0,0,1,337.706-26.667Z" transform="translate(-336 26.667)" fill="none" clip-rule="evenodd"/>
    </clipPath>
    <clipPath id="clip-path-4">
      <path id="Shape-2" data-name="Shape" d="M359-23v2.559a1.388,1.388,0,0,0,.85-1.28A1.388,1.388,0,0,0,359-23" transform="translate(-359 23)" fill="none"/>
    </clipPath>
    <clipPath id="clip-path-5">
      <path id="Shape-3" data-name="Shape" d="M338.853-24.667h9.811a.853.853,0,0,1,.853.853v2.986h0a.853.853,0,0,1-.853.853h-9.811a.853.853,0,0,1-.853-.853v-2.986h0A.853.853,0,0,1,338.853-24.667Z" transform="translate(-338 24.667)" fill="none"/>
    </clipPath>
    <clipPath id="clip-path-6">
      <path id="Shape-4" data-name="Shape" d="M320.58-25.212a5.528,5.528,0,0,1,3.809,1.522.2.2,0,0,0,.277,0l.74-.746a.206.206,0,0,0,.06-.146.206.206,0,0,0-.061-.146,6.973,6.973,0,0,0-9.649,0,.206.206,0,0,0-.062.145.206.206,0,0,0,.06.146l.74.746a.2.2,0,0,0,.277,0,5.529,5.529,0,0,1,3.809-1.522Zm0,2.429a3.14,3.14,0,0,1,2.108.812.2.2,0,0,0,.277,0l.739-.746a.206.206,0,0,0,.06-.147.206.206,0,0,0-.063-.146,4.581,4.581,0,0,0-6.24,0,.206.206,0,0,0-.063.146.206.206,0,0,0,.06.147l.739.746a.2.2,0,0,0,.277,0,3.139,3.139,0,0,1,2.106-.812ZM322-21a.2.2,0,0,0,.06-.147.2.2,0,0,0-.066-.145,2.189,2.189,0,0,0-2.828,0,.2.2,0,0,0-.066.145.2.2,0,0,0,.06.148l1.278,1.29a.2.2,0,0,0,.142.059.2.2,0,0,0,.142-.059Z" transform="translate(-315.694 26.669)" fill="none"/>
    </clipPath>
    <clipPath id="clip-path-7">
      <path id="Shape-5" data-name="Shape" d="M294.307-22.068h.64a.64.64,0,0,1,.64.64v1.28a.64.64,0,0,1-.64.64h-.64a.64.64,0,0,1-.64-.64v-1.28a.64.64,0,0,1,.64-.64Zm2.986-1.28h.64a.64.64,0,0,1,.64.64v2.559a.64.64,0,0,1-.64.64h-.64a.64.64,0,0,1-.64-.64v-2.559A.64.64,0,0,1,297.292-23.347Zm2.986-1.493h.64a.64.64,0,0,1,.64.64v4.052a.64.64,0,0,1-.64.64h-.64a.64.64,0,0,1-.64-.64V-24.2A.64.64,0,0,1,300.278-24.84Zm2.986-1.493h.64a.64.64,0,0,1,.64.64v5.545a.64.64,0,0,1-.64.64h-.64a.64.64,0,0,1-.64-.64v-5.545a.64.64,0,0,1,.64-.64Z" transform="translate(-293.667 26.333)" fill="none"/>
    </clipPath>
    <clipPath id="clip-path-8">
      <rect width="35" height="14" fill="none"/>
    </clipPath>
  </defs>
  <g id="Group_354" data-name="Group 354" transform="translate(146.265 148.5)">
    <g id="iPhone_X_-_Light" data-name="iPhone X - Light" transform="translate(0 0)">
      <g transform="matrix(1, 0, 0, 1, -146.26, -148.5)" filter="url(#Case)">
        <path id="Case-2" data-name="Case" d="M49.12,0H315.4a49.12,49.12,0,0,1,49.12,49.12V691.986a49.12,49.12,0,0,1-49.12,49.12H49.12A49.12,49.12,0,0,1,0,691.986V49.12A49.12,49.12,0,0,1,49.12,0Z" transform="translate(148.5 148.5)" fill="url(#linear-gradient)"/>
      </g>
      <path id="Bezel" d="M40.5,0H310.23a40.5,40.5,0,0,1,40.5,40.5V686.816a40.5,40.5,0,0,1-40.5,40.5H40.5A40.5,40.5,0,0,1,0,686.816V40.5A40.5,40.5,0,0,1,40.5,0Z" transform="translate(9.129 6.894)" fill="url(#linear-gradient-2)"/>
      <path id="Glass" d="M38.3,0H308.988a38.2,38.2,0,0,1,38.3,38.1V685.772a38.2,38.2,0,0,1-38.3,38.1H38.3A38.2,38.2,0,0,1,0,685.772V38.1A38.2,38.2,0,0,1,38.3,0Z" transform="translate(10.853 8.618)" fill="url(#linear-gradient-3)"/>
      <g id="Button" transform="translate(364.952 171.317)">
        <g id="Group_39" data-name="Group 39" transform="translate(0 0)">
          <path id="Rectangle_21" data-name="Rectangle 21" d="M0,0H2A2,2,0,0,1,4,2V82a2,2,0,0,1-2,2H0a0,0,0,0,1,0,0V0A0,0,0,0,1,0,0Z" transform="translate(0.036 0.377)" fill="url(#linear-gradient-4)"/>
          <path id="Rectangle_101" data-name="Rectangle 101" d="M0,0H2A2,2,0,0,1,4,2V82a2,2,0,0,1-2,2H0a0,0,0,0,1,0,0V0A0,0,0,0,1,0,0Z" transform="translate(0.036 0.377)" fill="url(#linear-gradient-5)"/>
        </g>
      </g>
      <g id="Button-2" data-name="Button" transform="translate(0 155.176)">
        <path id="Rectangle_28" data-name="Rectangle 28" d="M2,0H4A0,0,0,0,1,4,0V52a0,0,0,0,1,0,0H2a2,2,0,0,1-2-2V2A2,2,0,0,1,2,0Z" transform="translate(-0.012 -0.483)" fill="url(#linear-gradient-4)"/>
        <path id="Rectangle_103" data-name="Rectangle 103" d="M0,0H2A2,2,0,0,1,4,2V50a2,2,0,0,1-2,2H0a0,0,0,0,1,0,0V0A0,0,0,0,1,0,0Z" transform="translate(3.988 51.517) rotate(180)" fill="url(#linear-gradient-5)"/>
      </g>
      <g id="Button-3" data-name="Button" transform="translate(0 222.428)">
        <path id="Rectangle_29" data-name="Rectangle 29" d="M2,0H4A0,0,0,0,1,4,0V51a0,0,0,0,1,0,0H2a2,2,0,0,1-2-2V2A2,2,0,0,1,2,0Z" transform="translate(-0.012 0.265)" fill="url(#linear-gradient-4)"/>
        <path id="Rectangle_104" data-name="Rectangle 104" d="M0,0H2A2,2,0,0,1,4,2V49a2,2,0,0,1-2,2H0a0,0,0,0,1,0,0V0A0,0,0,0,1,0,0Z" transform="translate(3.988 51.265) rotate(180)" fill="url(#linear-gradient-5)"/>
      </g>
      <g id="Button-4" data-name="Button" transform="translate(0 101.375)">
        <path id="Rectangle_31" data-name="Rectangle 31" d="M1,0H4A0,0,0,0,1,4,0V27a0,0,0,0,1,0,0H1a1,1,0,0,1-1-1V1A1,1,0,0,1,1,0Z" transform="translate(-0.012 0.318)" fill="url(#linear-gradient-4)"/>
        <path id="Rectangle_149" data-name="Rectangle 149" d="M0,0H3A1,1,0,0,1,4,1V26a1,1,0,0,1-1,1H0a0,0,0,0,1,0,0V0A0,0,0,0,1,0,0Z" transform="translate(3.988 27.318) rotate(180)" fill="url(#linear-gradient-5)"/>
      </g>
      <g id="Camera" transform="translate(222.379 21.569)">
        <ellipse id="Ellipse_7" data-name="Ellipse 7" cx="6.5" cy="6" rx="6.5" ry="6" transform="translate(-0.391 0.124)" fill="url(#linear-gradient-12)"/>
        <circle id="Ellipse_8" data-name="Ellipse 8" cx="5" cy="5" r="5" transform="translate(0.609 1.124)" fill="url(#linear-gradient-3)"/>
        <circle id="Ellipse_10" data-name="Ellipse 10" cx="4" cy="4" r="4" transform="translate(1.609 2.124)" fill="#f3f3f3"/>
        <ellipse id="Ellipse_9" data-name="Ellipse 9" cx="1.5" cy="1" rx="1.5" ry="1" transform="translate(4.609 2.124)" fill="#fff"/>
      </g>
      <path id="Ear_Piece" data-name="Ear Piece" d="M3.516.5h47.4a3.016,3.016,0,1,1,0,6.032H3.516A3.016,3.016,0,1,1,3.516.5Z" transform="translate(157.281 24.922)" fill="#f3f3f3" stroke="#f9f8f8" stroke-width="1"/>
      <path id="Screen" d="M290.41,699.742H32.746A32.783,32.783,0,0,1,0,667V32.747A32.784,32.784,0,0,1,32.746,0h34.7A5.87,5.87,0,0,1,71.95,4.456c.142.623.29,1.44.461,2.384.33,1.817.74,4.072,1.35,6.349.788,2.947,4.27,12.571,15.968,12.692,4.412.045,31.923.055,54.224.055,41.024,0,88.1-.032,90.3-.055,11.7-.121,15.179-9.745,15.968-12.692.611-2.283,1.021-4.54,1.351-6.354.172-.949.32-1.759.46-2.379A5.681,5.681,0,0,1,256.5,0H290.41a32.784,32.784,0,0,1,32.746,32.747V667A32.783,32.783,0,0,1,290.41,699.742Z" transform="translate(22.917 20.682)" fill="#f5f5f5"/>
      <path id="Home" d="M2.154,0H109.873a2.154,2.154,0,1,1,0,4.309H2.154A2.154,2.154,0,0,1,2.154,0Z" transform="translate(128.913 705.774)" fill="#e2e2e2"/>
    </g>
    <g id="Mask_Group_2" data-name="Mask Group 2" transform="translate(21.521 646.562)" clip-path="url(#clip-path)">
      <path id="Screen-2" data-name="Screen" d="M293.083,822.769H33.048C14.825,822.769,0,805.5,0,784.265V38.5C0,17.273,14.825,0,33.048,0H68.064c2.521.5,4.125,3.069,4.548,5.239.143.733.292,1.693.466,2.8.333,2.137.746,4.787,1.362,7.465.8,3.465,4.309,14.781,16.115,14.923,4.453.054,32.216.065,54.723.065,41.4,0,88.908-.038,91.131-.065,11.805-.142,15.319-11.458,16.115-14.923.617-2.684,1.031-5.338,1.363-7.471.174-1.116.323-2.069.465-2.8.408-2.094,1.833-4.723,4.508-5.239h34.224c18.223,0,33.048,17.273,33.048,38.5V784.265C326.13,805.5,311.305,822.769,293.083,822.769Z" transform="translate(0.021 -749.959)" fill="#e2e1e1"/>
    </g>
    <text id="johndoe_email.com" data-name="johndoe@email.com" transform="translate(43.988 436.693)" font-size="16" font-family="Montserrat-Regular, Montserrat"><tspan x="0" y="0">johndoe@email.com</tspan></text>
    <text id="olson" transform="translate(43.988 345.693)" font-size="16" font-family="Montserrat-Regular, Montserrat"><tspan x="0" y="0">olson</tspan></text>
    <text id="_" data-name="********" transform="translate(43.988 528.693)" font-size="16" font-family="Montserrat-Regular, Montserrat" letter-spacing="0.35em"><tspan x="0" y="0">********</tspan></text>
    <text id="Email_Address" data-name="Email Address" transform="translate(45.988 400.693)" fill="#9b9b9b" font-size="9" font-family="Montserrat-Medium, Montserrat" font-weight="500" letter-spacing="0.102em"><tspan x="0" y="0">EMAIL ADDRESS</tspan></text>
    <text id="FULL_NAME" data-name="FULL NAME" transform="translate(45.988 312.693)" fill="#9b9b9b" font-size="9" font-family="Montserrat-Medium, Montserrat" font-weight="500" letter-spacing="0.102em"><tspan x="0" y="0">FULL NAME</tspan></text>
    <text id="Enter_your_informations_below_or_login_with_a_social_account" data-name="Enter your informations below or
login with a social account" transform="translate(43.988 247.693)" fill="#9b9b9b" font-size="12" font-family="Montserrat-Light, Montserrat" font-weight="300" letter-spacing="0.086em"><tspan x="0" y="0">Enter your informations below or</tspan><tspan x="0" y="15">login with a social account</tspan></text>
    <text id="PASSWORD" transform="translate(45.988 496.693)" fill="#9b9b9b" font-size="9" font-family="Montserrat-Medium, Montserrat" font-weight="500" letter-spacing="0.102em"><tspan x="0" y="0">PASSWORD</tspan></text>
    <line id="Line_3" data-name="Line 3" x2="274.82" transform="translate(43.718 455.728)" fill="none" stroke="#dfdfdf" stroke-width="1"/>
    <line id="Line_144" data-name="Line 144" x2="274.82" transform="translate(43.718 552.345)" fill="none" stroke="#dfdfdf" stroke-width="1"/>
    <line id="Line_7" data-name="Line 7" x2="274.82" transform="translate(43.718 367.53)" fill="none" stroke="#dfdfdf" stroke-width="1"/>
    <text id="Sign_up_" data-name="Sign up " transform="translate(39.988 203.693)" fill="#242424" font-size="32" font-family="Montserrat-Medium, Montserrat" font-weight="500"><tspan x="0" y="0">Sign up </tspan></text>
    <rect id="Rectangle_5" data-name="Rectangle 5" width="72" height="73" rx="36" transform="translate(253.988 609.693)" fill="#b884cf"/>
    <g id="Mask_Group_4" data-name="Mask Group 4" transform="translate(279.767 632.215)" clip-path="url(#clip-path-2)">
      <g id="next_1_" data-name="next (1)" transform="translate(5.427 -0.186)">
        <path id="Path_9" data-name="Path 9" d="M21.09,12.5,8.807.217A.737.737,0,0,0,7.765,1.259L19.524,13.018,7.765,24.778a.739.739,0,0,0,.518,1.261A.719.719,0,0,0,8.8,25.82L21.085,13.537A.733.733,0,0,0,21.09,12.5Z" transform="translate(-7.548 0)" fill="#fff" stroke="#fff" stroke-width="1"/>
      </g>
    </g>
    <text id="Sign_in_" data-name="Sign in " transform="translate(41.988 105.693)" font-size="17" font-family="Montserrat-Regular, Montserrat" opacity="0.5"><tspan x="0" y="0">Sign in </tspan></text>
    <text id="Sign_Up_2" data-name="Sign Up " transform="translate(133.988 105.693)" fill="#556080" font-size="17" font-family="Montserrat-Medium, Montserrat" font-weight="500"><tspan x="0" y="0">Sign Up </tspan></text>
    <line id="Line_145" data-name="Line 145" x2="32.429" transform="translate(136.731 121.42)" fill="none" stroke="#556080" stroke-linecap="round" stroke-width="2"/>
    <g id="Status_Bar_Light" data-name="Status Bar Light" transform="translate(30.988 18.693)">
      <g id="Bars_Status_Bar_Light_Status_Bar" data-name="Bars/Status Bar/Light Status Bar">
        <path id="Background" d="M0-44H311.607V-6.889H0Z" transform="translate(0 44)" fill="none"/>
        <g id="Battery" transform="translate(286.652 15.844)">
          <g id="Border" transform="translate(0 0)" clip-path="url(#clip-path-3)">
            <path id="Fill" d="M1.706,0H12.37a1.706,1.706,0,0,1,1.706,1.706V5.545h0A1.706,1.706,0,0,1,12.37,7.252H1.706A1.706,1.706,0,0,1,0,5.545V1.706H0A1.706,1.706,0,0,1,1.706,0Z" fill="none" stroke="rgba(0,0,0,0.35)" stroke-width="2"/>
          </g>
          <g id="Cap" transform="translate(14.717 2.346)" clip-path="url(#clip-path-4)">
            <path id="Fill-2" data-name="Fill" d="M354-28h7.248v8.958H354Z" transform="translate(-357.199 24.801)" fill="rgba(0,0,0,0.4)"/>
          </g>
          <g id="Capacity" transform="translate(1.28 1.28)" clip-path="url(#clip-path-5)">
            <path id="Fill-3" data-name="Fill" d="M333-29.667h17.916v11.091H333Z" transform="translate(-336.199 26.467)"/>
          </g>
        </g>
        <g id="Wifi" transform="translate(268.541 15.789)">
          <g id="Wifi-2" data-name="Wifi" transform="translate(0 0)" clip-path="url(#clip-path-6)">
            <path id="Fill-4" data-name="Fill" d="M310.694-31.669h16.171v13.415H310.694Z" transform="translate(-313.893 28.47)"/>
          </g>
        </g>
        <g id="Cellular_Connection" data-name="Cellular Connection" transform="translate(249.247 16.052)">
          <g id="Cellular_Connection-2" data-name="Cellular Connection" transform="translate(0 0)" clip-path="url(#clip-path-7)">
            <path id="Fill-5" data-name="Fill" d="M288.667-31.333h17.276V-18.11H288.667Z" transform="translate(-291.866 28.134)"/>
          </g>
        </g>
        <g id="Bars___Time_Black" data-name="Bars/_/Time Black" transform="translate(13 15)" clip-path="url(#clip-path-8)">
          <path id="Background-2" data-name="Background" d="M21-24.762H55.552V-35H21Z" transform="translate(-21 35)" fill="none"/>
          <text id="_Time" data-name="↳ Time" transform="translate(0 1)" font-size="14" font-family="Helvetica" letter-spacing="0em"><tspan x="3.87" y="11">9:41</tspan></text>
        </g>
      </g>
    </g>
  </g>
</svg>
