<svg xmlns="http://www.w3.org/2000/svg" width="14.319" height="12.216" viewBox="0 0 14.319 12.216">
  <g id="_149213" data-name="149213" transform="translate(0.15 -4.35)">
    <path id="Path_1640" data-name="Path 1640" d="M11.91,8.284A4,4,0,0,0,7.964,4.5,4.119,4.119,0,0,0,4.705,6.137c-.017-.009-.036-.015-.053-.024-.046-.022-.093-.044-.141-.063l-.081-.03C4.383,6,4.335,5.99,4.286,5.977L4.2,5.956c-.052-.012-.106-.021-.16-.029l-.071-.011A2.168,2.168,0,0,0,3.738,5.9,2.105,2.105,0,0,0,1.636,8c0,.03,0,.06,0,.089A3.231,3.231,0,0,0,0,10.844a3,3,0,0,0,3,3h1.2a.234.234,0,0,0,0-.467H3A2.537,2.537,0,0,1,.467,10.844a2.778,2.778,0,0,1,1.5-2.4L2.1,8.386V8.238c0-.029,0-.058,0-.088l0-.041,0-.044c0-.02,0-.041,0-.061a1.625,1.625,0,0,1,1.85-1.62l.054.008a1.6,1.6,0,0,1,.185.041l.024.006a1.6,1.6,0,0,1,.2.075l.048.023a1.6,1.6,0,0,1,.165.093A1.634,1.634,0,0,1,5.374,8a.234.234,0,0,0,.467,0A2.1,2.1,0,0,0,5.094,6.4a3.7,3.7,0,0,1,2.87-1.432,3.527,3.527,0,0,1,3.469,3.245,4.449,4.449,0,0,0-.954.029.234.234,0,0,0,.035.465l.036,0a4.308,4.308,0,0,1,1.094,0,2.4,2.4,0,0,1,1.908,2.333,2.346,2.346,0,0,1-2.343,2.343h-.928a.234.234,0,1,0,0,.467h.928a2.814,2.814,0,0,0,2.81-2.81A2.875,2.875,0,0,0,11.91,8.284Z" transform="translate(0 0)" fill="#adafb1" stroke="#adafb1" stroke-width="0.3"/>
    <path id="Path_1641" data-name="Path 1641" d="M24.268,30.57a.231.231,0,0,0-.076-.051.234.234,0,0,0-.255.051l-1.869,1.869a.234.234,0,1,0,.33.33l1.47-1.47v4.81a.234.234,0,0,0,.467,0V31.3l1.47,1.47a.234.234,0,0,0,.33-.33Z" transform="translate(-16.86 -19.926)" fill="#adafb1" stroke="#adafb1" stroke-width="0.3"/>
  </g>
</svg>
