<svg xmlns="http://www.w3.org/2000/svg" xmlns:xlink="http://www.w3.org/1999/xlink" width="866.698" height="1455.251" viewBox="0 0 866.698 1455.251"><defs><style>.a{fill:#e2e1e1;}.b,.l,.y{fill:#fff;}.b{stroke:#707070;}.ab,.ad,.c,.d,.u{fill:none;}.c{clip-rule:evenodd;}.e{fill:url(#a);}.f{fill:url(#d);}.g{fill:url(#e);}.h{fill:url(#f);}.i{fill:url(#g);}.j{fill:url(#n);}.k,.m{fill:#f3f3f3;}.m{stroke:#f9f8f8;}.n{fill:#f5f5f5;}.o{fill:#e2e2e2;}.p{clip-path:url(#p);}.q,.r{font-size:26px;}.q,.r,.z{font-family:Montserrat-Regular, Montserrat;}.r{letter-spacing:0.35em;}.s,.t{fill:#9b9b9b;}.s{font-size:17px;letter-spacing:0.102em;}.aa,.s,.v{font-family:Montserrat-Medium, Montserrat;font-weight:500;}.t{font-size:21px;font-family:Montserrat-Light, Montserrat;font-weight:300;letter-spacing:0.086em;}.u{stroke:#dfdfdf;}.v{fill:#242424;font-size:51px;}.w{fill:#b884cf;}.x{clip-path:url(#q);}.y{stroke:#fff;}.aa,.z{font-size:29px;}.z{opacity:0.5;}.aa{fill:#556080;}.ab{stroke:#556080;stroke-linecap:round;}.ab,.ad{stroke-width:2px;}.ac{clip-path:url(#r);}.ad{stroke:rgba(0,0,0,0.35);}.ae{clip-path:url(#s);}.af{fill:rgba(0,0,0,0.4);}.ag{clip-path:url(#t);}.ah{clip-path:url(#u);}.ai{clip-path:url(#v);}.aj{clip-path:url(#w);}.ak{font-size:14px;font-family:SegoeUI-Semibold, Segoe UI;font-weight:600;letter-spacing:0em;}.al{filter:url(#b);}</style><linearGradient id="a" x1="0.5" x2="0.5" y2="1" gradientUnits="objectBoundingBox"><stop offset="0" stop-color="#fff"/><stop offset="1" stop-color="#e3e3e3"/></linearGradient><filter id="b" x="0" y="0" width="866.698" height="1455.251" filterUnits="userSpaceOnUse"><feOffset input="SourceAlpha"/><feGaussianBlur stdDeviation="49.5" result="c"/><feFlood flood-opacity="0.161"/><feComposite operator="in" in2="c"/><feComposite in="SourceGraphic"/></filter><linearGradient id="d" x1="0.5" x2="0.5" y2="1" gradientUnits="objectBoundingBox"><stop offset="0" stop-color="#f6f6f6"/><stop offset="1" stop-color="#ececec"/></linearGradient><linearGradient id="e" x1="0.5" x2="0.5" y2="1" gradientUnits="objectBoundingBox"><stop offset="0" stop-color="#fff"/><stop offset="1" stop-color="#f3f3f3"/></linearGradient><linearGradient id="f" x1="0.5" x2="0.5" y2="1" gradientUnits="objectBoundingBox"><stop offset="0" stop-color="#fff"/><stop offset="1" stop-color="#e5e5e5"/></linearGradient><linearGradient id="g" x1="1" y1="0.377" x2="0" y2="0.377" gradientUnits="objectBoundingBox"><stop offset="0" stop-color="#fff" stop-opacity="0"/><stop offset="0.322" stop-color="#fdfdfd" stop-opacity="0"/><stop offset="1" stop-color="#dadada"/></linearGradient><linearGradient id="n" x1="0.5" x2="0.5" y2="1" gradientUnits="objectBoundingBox"><stop offset="0" stop-color="#f3f3f3"/><stop offset="1" stop-color="#fff"/></linearGradient><clipPath id="p"><rect class="a" width="509" height="123" transform="translate(0.173 0.001)"/></clipPath><clipPath id="q"><rect class="b" width="40" height="40" transform="translate(0.492 0.191)"/></clipPath><clipPath id="r"><path class="c" d="M338.667-26.667h16.667A2.667,2.667,0,0,1,358-24v6h0a2.667,2.667,0,0,1-2.667,2.667H338.667A2.667,2.667,0,0,1,336-18v-6h0A2.667,2.667,0,0,1,338.667-26.667Z" transform="translate(-336 26.667)"/></clipPath><clipPath id="s"><path class="d" d="M359-23v4a2.17,2.17,0,0,0,1.328-2A2.17,2.17,0,0,0,359-23" transform="translate(-359 23)"/></clipPath><clipPath id="t"><path class="d" d="M339.333-24.667h15.333A1.333,1.333,0,0,1,356-23.333v4.667h0a1.333,1.333,0,0,1-1.333,1.333H339.333A1.333,1.333,0,0,1,338-18.667v-4.667h0A1.333,1.333,0,0,1,339.333-24.667Z" transform="translate(-338 24.667)"/></clipPath><clipPath id="u"><path class="d" d="M323.33-24.392a8.64,8.64,0,0,1,5.953,2.378.308.308,0,0,0,.433,0l1.156-1.167a.322.322,0,0,0,.093-.229.322.322,0,0,0-.1-.227,10.9,10.9,0,0,0-15.08,0,.322.322,0,0,0-.1.227.322.322,0,0,0,.093.229l1.156,1.167a.308.308,0,0,0,.433,0,8.641,8.641,0,0,1,5.954-2.378Zm0,3.8a4.907,4.907,0,0,1,3.294,1.27.31.31,0,0,0,.433-.006l1.155-1.167a.322.322,0,0,0,.094-.23.322.322,0,0,0-.1-.229,7.159,7.159,0,0,0-9.752,0,.322.322,0,0,0-.1.229.322.322,0,0,0,.094.23l1.154,1.167a.31.31,0,0,0,.433.006,4.907,4.907,0,0,1,3.292-1.27Zm2.219,2.784a.314.314,0,0,0,.094-.231.314.314,0,0,0-.1-.226,3.422,3.422,0,0,0-4.419,0,.314.314,0,0,0-.1.226.314.314,0,0,0,.094.231l2,2.016a.311.311,0,0,0,.222.093.312.312,0,0,0,.222-.093Z" transform="translate(-315.694 26.669)"/></clipPath><clipPath id="v"><path class="d" d="M294.667-19.667h1a1,1,0,0,1,1,1v2a1,1,0,0,1-1,1h-1a1,1,0,0,1-1-1v-2a1,1,0,0,1,1-1Zm4.667-2h1a1,1,0,0,1,1,1v4a1,1,0,0,1-1,1h-1a1,1,0,0,1-1-1v-4A1,1,0,0,1,299.333-21.667ZM304-24h1a1,1,0,0,1,1,1v6.333a1,1,0,0,1-1,1h-1a1,1,0,0,1-1-1V-23A1,1,0,0,1,304-24Zm4.667-2.333h1a1,1,0,0,1,1,1v8.667a1,1,0,0,1-1,1h-1a1,1,0,0,1-1-1v-8.667a1,1,0,0,1,1-1Z" transform="translate(-293.667 26.333)"/></clipPath><clipPath id="w"><rect class="d" width="54" height="21"/></clipPath></defs><g transform="translate(-965.978 -4235.375)"><g transform="translate(929.455 4309.875)"><g class="al" transform="matrix(1, 0, 0, 1, 36.52, -74.5)"><path class="e" d="M76.768,0H492.93A76.768,76.768,0,0,1,569.7,76.768V1081.483a76.768,76.768,0,0,1-76.768,76.768H76.768A76.768,76.768,0,0,1,0,1081.483V76.768A76.768,76.768,0,0,1,76.768,0Z" transform="translate(148.5 148.5)"/></g><path class="f" d="M63.3,0H484.849a63.3,63.3,0,0,1,63.3,63.3V1073.4a63.3,63.3,0,0,1-63.3,63.3H63.3A63.3,63.3,0,0,1,0,1073.4V63.3A63.3,63.3,0,0,1,63.3,0Z" transform="translate(195.797 84.774)"/><path class="g" d="M59.853,0H482.908a59.7,59.7,0,0,1,59.853,59.543V1071.771a59.7,59.7,0,0,1-59.853,59.543H59.853A59.7,59.7,0,0,1,0,1071.771V59.543A59.7,59.7,0,0,1,59.853,0Z" transform="translate(198.491 87.468)"/><g transform="translate(753.023 342.6)"><g transform="translate(0 0)"><path class="h" d="M0,0H5A2,2,0,0,1,7,2V129a2,2,0,0,1-2,2H0a0,0,0,0,1,0,0V0A0,0,0,0,1,0,0Z" transform="translate(-0.478 -0.475)"/><path class="i" d="M0,0H5A2,2,0,0,1,7,2V129a2,2,0,0,1-2,2H0a0,0,0,0,1,0,0V0A0,0,0,0,1,0,0Z" transform="translate(-0.478 -0.475)"/></g></g><g transform="translate(181.055 316.556)"><path class="h" d="M2,0H7A0,0,0,0,1,7,0V82a0,0,0,0,1,0,0H2a2,2,0,0,1-2-2V2A2,2,0,0,1,2,0Z" transform="translate(0.49 -0.431)"/><path class="i" d="M0,0H5A2,2,0,0,1,7,2V80a2,2,0,0,1-2,2H0a0,0,0,0,1,0,0V0A0,0,0,0,1,0,0Z" transform="translate(7.49 81.569) rotate(180)"/></g><g transform="translate(181.055 421.734)"><path class="h" d="M2,0H7A0,0,0,0,1,7,0V80a0,0,0,0,1,0,0H2a2,2,0,0,1-2-2V2A2,2,0,0,1,2,0Z" transform="translate(0.49 0.391)"/><path class="i" d="M0,0H5A2,2,0,0,1,7,2V78a2,2,0,0,1-2,2H0a0,0,0,0,1,0,0V0A0,0,0,0,1,0,0Z" transform="translate(7.49 80.391) rotate(180)"/></g><g transform="translate(181.055 232.414)"><path class="h" d="M1,0H7A0,0,0,0,1,7,0V42a0,0,0,0,1,0,0H1a1,1,0,0,1-1-1V1A1,1,0,0,1,1,0Z" transform="translate(0.49 -0.288)"/><path class="i" d="M0,0H6A1,1,0,0,1,7,1V41a1,1,0,0,1-1,1H0a0,0,0,0,1,0,0V0A0,0,0,0,1,0,0Z" transform="translate(7.49 41.712) rotate(180)"/></g><g transform="translate(528.643 107.202)"><circle class="j" cx="10" cy="10" r="10" transform="translate(-0.098 -0.077)"/><circle class="g" cx="8" cy="8" r="8" transform="translate(1.902 1.923)"/><circle class="k" cx="6" cy="6" r="6" transform="translate(3.902 3.923)"/><ellipse class="l" cx="2" cy="1.5" rx="2" ry="1.5" transform="translate(7.902 3.923)"/></g><path class="m" d="M5.214.5H79.288a4.714,4.714,0,1,1,0,9.428H5.214A4.714,4.714,0,1,1,5.214.5Z" transform="translate(427.621 113.231)"/><path class="n" d="M453.872,1093.6H51.178A51.236,51.236,0,0,1,0,1042.426V51.179A51.237,51.237,0,0,1,51.178,0H105.4a9.174,9.174,0,0,1,7.044,6.964c.221.974.453,2.25.721,3.726.516,2.84,1.156,6.363,2.109,9.923,1.232,4.606,6.673,19.647,24.955,19.835,6.9.071,49.891.086,84.744.086,64.116,0,137.684-.051,141.126-.086,18.282-.189,23.723-15.23,24.955-19.835.955-3.568,1.6-7.1,2.111-9.93.269-1.483.5-2.75.719-3.718A8.879,8.879,0,0,1,400.872,0h53A51.237,51.237,0,0,1,505.05,51.179v991.246A51.236,51.236,0,0,1,453.872,1093.6Z" transform="translate(217.346 106.323)"/><path class="o" d="M3.367,0h168.35a3.367,3.367,0,1,1,0,6.734H3.367A3.367,3.367,0,0,1,3.367,0Z" transform="translate(383.003 1177.032)"/></g><g class="p" transform="translate(1144.827 5393.999)"><path class="a" d="M458.049,1285.879H51.649C23.17,1285.879,0,1258.884,0,1225.7V60.178C0,27,23.17,0,51.649,0h54.726c3.941.788,6.447,4.8,7.108,8.188.223,1.146.457,2.646.728,4.381.521,3.339,1.167,7.482,2.129,11.667,1.243,5.415,6.735,23.1,25.185,23.323,6.96.084,50.35.1,85.524.1,64.706,0,138.952-.059,142.425-.1,18.45-.222,23.941-17.907,25.185-23.323.964-4.195,1.611-8.343,2.13-11.676.272-1.744.5-3.233.726-4.372C398.153,4.915,400.38.807,404.561,0h53.488C486.529,0,509.7,27,509.7,60.178V1225.7C509.7,1258.884,486.529,1285.879,458.049,1285.879Z" transform="translate(-0.177 -1171.72)"/></g><text class="q" transform="translate(1180 5067)"><tspan x="0" y="0">johndoe@email.com</tspan></text><text class="q" transform="translate(1180 4926)"><tspan x="0" y="0">olson</tspan></text><text class="r" transform="translate(1180 5212)"><tspan x="0" y="0">********</tspan></text><text class="s" transform="translate(1183 5013)"><tspan x="0" y="0">EMAIL ADDRESS</tspan></text><text class="s" transform="translate(1182 4875)"><tspan x="0" y="0">FULL NAME</tspan></text><text class="t" transform="translate(1179 4773)"><tspan x="0" y="0">Enter your informations below or</tspan><tspan x="0" y="25">login with a social account</tspan></text><text class="s" transform="translate(1182 5162)"><tspan x="0" y="0">PASSWORD</tspan></text><line class="u" x2="429.507" transform="translate(1179.31 5096.117)"/><line class="u" x2="429.507" transform="translate(1179.31 5247.117)"/><line class="u" x2="429.507" transform="translate(1179.31 4958.276)"/><text class="v" transform="translate(1174 4702)"><tspan x="0" y="0">Sign up </tspan></text><rect class="w" width="114" height="113" rx="56.5" transform="translate(1507 5337)"/><g class="x" transform="translate(1547.509 5371.809)"><g transform="translate(9.197 -0.156)"><path class="y" d="M28.713,19.536,9.516.339A1.152,1.152,0,0,0,7.887,1.968L26.265,20.346,7.887,38.724a1.156,1.156,0,0,0,.81,1.97,1.123,1.123,0,0,0,.81-.341l19.2-19.2A1.145,1.145,0,0,0,28.713,19.536Z" transform="translate(-7.548 0)"/></g></g><text class="z" transform="translate(1177 4552)"><tspan x="0" y="0">Sign in </tspan></text><text class="aa" transform="translate(1320 4552)"><tspan x="0" y="0">Sign Up </tspan></text><line class="ab" x2="50.682" transform="translate(1324.676 4573.639)"/><g transform="translate(1160 4414)"><path class="d" d="M0-44H487V14H0Z" transform="translate(0 44)"/><g transform="translate(448 24.762)"><g class="ac" transform="translate(0 0)"><path class="ad" d="M2.667,0H19.333A2.667,2.667,0,0,1,22,2.667v6h0a2.667,2.667,0,0,1-2.667,2.667H2.667A2.667,2.667,0,0,1,0,8.667v-6H0A2.667,2.667,0,0,1,2.667,0Z"/></g><g class="ae" transform="translate(23 3.667)"><path class="af" d="M354-28h11.328v14H354Z" transform="translate(-359 23)"/></g><g class="ag" transform="translate(2 2)"><path d="M333-29.667h28v17.333H333Z" transform="translate(-338 24.667)"/></g></g><g transform="translate(419.694 24.675)"><g class="ah" transform="translate(0 0)"><path d="M310.694-31.669h25.272V-10.7H310.694Z" transform="translate(-315.694 26.669)"/></g></g><g transform="translate(389.54 25.087)"><g class="ai" transform="translate(0 0)"><path d="M288.667-31.333h27v20.667h-27Z" transform="translate(-293.667 26.333)"/></g></g><g class="aj" transform="translate(21 24)"><path class="d" d="M21-19H75V-35H21Z" transform="translate(-21 35)"/><text class="ak" transform="translate(0 2)"><tspan x="14.549" y="15">9:41</tspan></text></g></g></g></svg>