<svg xmlns="http://www.w3.org/2000/svg" width="46.753" height="43.469" viewBox="0 0 46.753 43.469"><defs><style>.a{fill:#181c1d;}</style></defs><path class="a" d="M46.675,14.788c-.682-7.511-6-12.961-12.653-12.961A12.577,12.577,0,0,0,23.247,8.035,12.121,12.121,0,0,0,12.73,1.826C6.077,1.826.76,7.276.078,14.787a13.365,13.365,0,0,0,.4,4.926,21.127,21.127,0,0,0,6.473,10.8L23.237,45.3,39.8,30.515a21.129,21.129,0,0,0,6.473-10.8A13.394,13.394,0,0,0,46.675,14.788ZM44.527,19.3A19.322,19.322,0,0,1,38.6,29.178l-15.354,13.7L8.157,29.182A19.335,19.335,0,0,1,2.226,19.3a11.678,11.678,0,0,1-.374-4.227l.013-.091C2.45,8.4,7.019,3.624,12.73,3.624a10.54,10.54,0,0,1,9.685,6.757l.828,1.963.828-1.963a10.863,10.863,0,0,1,9.953-6.756c5.71,0,10.28,4.777,10.876,11.443A11.664,11.664,0,0,1,44.527,19.3Z" transform="translate(0 -1.826)"/><path class="a" d="M14.99,7.9A9,9,0,0,0,6,16.9a.9.9,0,1,0,1.8,0A7.2,7.2,0,0,1,14.99,9.7a.9.9,0,1,0,0-1.8Z" transform="translate(-0.605 -2.439)"/></svg>